<svg xmlns="http://www.w3.org/2000/svg">
    <symbol id="logo" viewBox="0 0 37 50" fill="none">
        <path d="M18.1894 0.483476C19.3884 0.21273 21.2703 0.0618287 22.2534 0.0134811V5.28125C21.7699 5.26513 20.9356 5.31823 19.9299 5.51162C17.8993 5.89841 16.2072 6.52692 14.6601 7.30048C13.1129 8.07405 11.7108 9.28274 10.5989 10.2497C9.70926 11.0232 8.88678 12.1232 8.54834 12.6389L8.5 5C8.56446 4.93554 8.84867 4.77674 9.77695 4.15789C10.9373 3.38433 11.6142 2.99755 12.9679 2.27234C14.3216 1.54712 16.6907 0.821909 18.1894 0.483476Z"
              fill="#FE5823"/>
        <path d="M26.3997 0.483475C25.2007 0.212728 23.2364 0.0618287 22.2534 0.0134811V5.28125C22.7368 5.26513 23.6535 5.31823 24.6592 5.51162C26.6898 5.8984 28.3819 6.52692 29.929 7.30048C31.4762 8.07404 32.8782 9.28273 33.9902 10.2497C34.8798 11.0232 35.7023 12.1232 36.0408 12.6389L36.0891 5C36.0246 4.93554 35.7404 4.77674 34.8122 4.15789C33.6518 3.38433 32.9749 2.99755 31.6212 2.27234C30.2675 1.54712 27.8984 0.821908 26.3997 0.483475Z"
              fill="#FE5823"/>
        <path fill-rule="evenodd" clip-rule="evenodd"
              d="M24.9309 38.3686C29.3779 33.5337 35 27.4199 35 21.9215C35 15.3551 29.4112 10.0304 22.5176 10.0304C15.624 10.0304 10.0352 15.3551 10.0352 21.9215C10.0352 27.4199 15.6573 33.5337 20.1043 38.3686C20.9698 39.3111 21.7919 40.2024 22.5176 41.0333C23.2432 40.2024 24.0654 39.3111 24.9309 38.3686ZM22.5176 25.5318C23.1186 25.5318 23.7138 25.4216 24.2691 25.2073C24.8244 24.9931 25.3289 24.6791 25.7539 24.2833C26.1789 23.8874 26.5161 23.4175 26.7461 22.9003C26.9761 22.3831 27.0945 21.8287 27.0945 21.2689C27.0945 20.7091 26.9761 20.1548 26.7461 19.6376C26.5161 19.1204 26.1789 18.6504 25.7539 18.2546C25.3289 17.8588 24.8244 17.5448 24.2691 17.3305C23.7138 17.1163 23.1186 17.006 22.5176 17.006C21.3037 17.006 20.1396 17.4552 19.2812 18.2546C18.4229 19.0541 17.9407 20.1383 17.9407 21.2689C17.9407 22.3995 18.4229 23.4838 19.2812 24.2833C20.1396 25.0827 21.3037 25.5318 22.5176 25.5318Z"
              fill="#0071FE"/>
        <path d="M2.76656 11.7485C3.73351 9.93059 5.61363 7.9186 6.5 7L6.5 16.2827C6.26793 16.7082 6.02196 17.5663 5.8608 18.082C4.8455 21.7564 5.37732 24.9474 6.63436 28.2833C7.8914 31.6193 11.8076 36.164 13.9348 38.6781C15.6367 40.6893 18.6084 43.8674 19.8816 45.205L16.6907 49.3629C15.3853 48.0091 12.3684 44.8472 10.7439 43.0293C8.71331 40.757 6.48932 37.9529 5.18393 36.164C3.87855 34.3751 2.13803 31.5226 1.55786 29.8788C0.977693 28.235 0.155787 26.156 0.0590915 23.8837C-0.0376037 21.6114 -0.0859513 20.1609 0.49422 17.6469C1.07439 15.1328 1.55787 14.0208 2.76656 11.7485Z"
              fill="#0071FE"/>
    </symbol>
    <symbol id="person" viewBox="0 0 42 42" fill="none">
        <rect width="42" height="42" rx="21" fill="white"/>
        <path d="M21.4999 21.1549C16.5201 21.1549 12.3273 24.5386 11.0779 29.1411C10.6596 30.6821 11.9882 32 13.579 32H29.4209C31.0118 32 32.3405 30.6821 31.9221 29.1411C30.6727 24.5386 26.4799 21.1549 21.4999 21.1549Z"
              fill="#3B5C84"/>
        <path d="M26.5404 15.061C26.5404 17.8562 24.2837 20.1221 21.4998 20.1221C18.7159 20.1221 16.4592 17.8562 16.4592 15.061C16.4592 12.2659 18.7159 10 21.4998 10C24.2837 10 26.5404 12.2659 26.5404 15.061Z"
              fill="#3B5C84"/>
    </symbol>
    <symbol id="plus" viewBox="0 0 24 24" fill="none">
        <path d="M6 12.5H18M12 6.5V18.5" stroke="white" stroke-width="1.8" stroke-linecap="round"/>
    </symbol>
    <symbol id="chevron-bottom" viewBox="0 0 24 24" fill="none">
        <path d="M17 10L12 15L7 10" stroke="var(--chevron-color)" stroke-width="2" stroke-linecap="round"/>
    </symbol>
    <symbol id="menu-hamburger" viewBox="0 0 32 32" fill="none">
        <path d="M25.3334 9.33333L6.66675 9.33336M25.3334 16H6.66675M25.3334 22.6667H6.66675" stroke="#0071FE"
              stroke-width="2" stroke-linecap="round"/>
    </symbol>
    <symbol id="close" viewBox="0 0 32 32" fill="none">
        <path d="M11 21.5L16.5 16M16.5 16L22 10.5M16.5 16L22 21.5M16.5 16L11 10.5" stroke="#0071FE" stroke-width="2"
              stroke-linecap="round"/>
    </symbol>
    <symbol id="chevron-right" fill="none">
        <path d="M11 7.5L18 14.5L11 21.5" stroke="#6B737E" stroke-width="2.5" stroke-linecap="round"/>
    </symbol>

    <symbol id="all-categories"  viewBox="0 0 42 42" fill="none">
        <rect width="42" height="42" fill="white"/>
        <path d="M19 14C19 16.7614 16.7614 19 14 19C11.2386 19 9 16.7614 9 14C9 11.2386 11.2386 9 14 9C16.7614 9 19 11.2386 19 14Z" fill="#9262E4"/>
        <path d="M19 28C19 30.7614 16.7614 33 14 33C11.2386 33 9 30.7614 9 28C9 25.2386 11.2386 23 14 23C16.7614 23 19 25.2386 19 28Z" fill="#9262E4"/>
        <path d="M33 14C33 16.7614 30.7614 19 28 19C25.2386 19 23 16.7614 23 14C23 11.2386 25.2386 9 28 9C30.7614 9 33 11.2386 33 14Z" fill="#9262E4"/>
        <path d="M33 28C33 30.7614 30.7614 33 28 33C25.2386 33 23 30.7614 23 28C23 25.2386 25.2386 23 28 23C30.7614 23 33 25.2386 33 28Z" fill="#9262E4"/>
        <path d="M8 13.85C8 10.6191 10.6191 8 13.85 8C17.0809 8 19.7 10.6191 19.7 13.85V17.75C19.7 18.2034 19.7 18.43 19.6502 18.616C19.5149 19.1207 19.1207 19.5149 18.616 19.6502C18.43 19.7 18.2034 19.7 17.75 19.7H13.85C10.6191 19.7 8 17.0809 8 13.85Z" fill="#9262E4"/>
        <path d="M22.3 24.25C22.3 23.7966 22.3 23.57 22.3498 23.384C22.4851 22.8793 22.8793 22.4851 23.384 22.3498C23.57 22.3 23.7966 22.3 24.25 22.3H28.15C31.3809 22.3 34 24.9191 34 28.15C34 31.3809 31.3809 34 28.15 34C24.9191 34 22.3 31.3809 22.3 28.15V24.25Z" fill="#9262E4"/>
        <path d="M8 28.15C8 24.9191 10.6191 22.3 13.85 22.3H17.36C18.1791 22.3 18.5886 22.3 18.9015 22.4594C19.1766 22.5996 19.4004 22.8234 19.5406 23.0985C19.7 23.4114 19.7 23.8209 19.7 24.64V28.15C19.7 31.3809 17.0809 34 13.85 34C10.6191 34 8 31.3809 8 28.15Z" fill="#9262E4"/>
        <path d="M22.3 13.85C22.3 10.6191 24.9191 8 28.15 8C31.3809 8 34 10.6191 34 13.85C34 17.0809 31.3809 19.7 28.15 19.7H23.9714C23.7774 19.7 23.6804 19.7 23.5988 19.6908C22.9207 19.6144 22.3856 19.0793 22.3092 18.4012C22.3 18.3196 22.3 18.2226 22.3 18.0286V13.85Z" fill="#9262E4"/>
    </symbol>



    <symbol id="location" viewBox="0 0 28 28" fill="none">
        <path fill-rule="evenodd" clip-rule="evenodd"
              d="M13.664 24.3933L13.6616 24.3921L13.6558 24.388L13.6383 24.3746L13.5695 24.325C13.5103 24.2818 13.4267 24.2188 13.3186 24.136C13.104 23.9715 12.7995 23.7294 12.436 23.4185C11.482 22.6031 10.59 21.7179 9.76729 20.7702C7.83762 18.5383 5.83329 15.3533 5.83329 11.711C5.83329 9.53517 6.69312 7.44683 8.22379 5.90683C8.98032 5.14459 9.88014 4.53952 10.8715 4.12645C11.8628 3.71339 12.926 3.50048 14 3.5C15.0739 3.50041 16.1371 3.71322 17.1284 4.12619C18.1197 4.53915 19.0196 5.14412 19.7761 5.90625C21.3081 7.44988 22.1675 9.53677 22.1666 11.7116C22.1666 15.3533 20.1623 18.5383 18.2326 20.7702C17.4099 21.7179 16.5179 22.6031 15.5639 23.4185C15.1999 23.7294 14.896 23.9715 14.6813 24.136C14.576 24.2171 14.4696 24.2968 14.3622 24.3752L14.3435 24.388L14.3383 24.3921L14.336 24.3933C14.1347 24.535 13.8652 24.535 13.664 24.3933ZM11.0833 11.6667C11.0833 12.4402 11.3906 13.1821 11.9376 13.7291C12.4845 14.276 13.2264 14.5833 14 14.5833C14.7735 14.5833 15.5154 14.276 16.0624 13.7291C16.6093 13.1821 16.9166 12.4402 16.9166 11.6667C16.9166 10.8931 16.6093 10.1513 16.0624 9.60427C15.5154 9.05729 14.7735 8.75 14 8.75C13.2264 8.75 12.4845 9.05729 11.9376 9.60427C11.3906 10.1513 11.0833 10.8931 11.0833 11.6667Z"
              fill="#FE5823"/>
    </symbol>


    <symbol id="search" viewBox="0 0 24 24" fill="none">
        <path d="M15.4485 15.4637L19 19M17.2497 11.125C17.2497 7.74226 14.5075 5 11.1248 5C7.74219 5 5 7.74226 5 11.125C5 14.5077 7.74219 17.25 11.1248 17.25C14.5075 17.25 17.2497 14.5077 17.2497 11.125Z"
              stroke="var(--search-color)" stroke-width="1.8" stroke-linecap="round"/>
    </symbol>

    <symbol id="round-home" viewBox="0 0 42 42" fill="none">
        <path d="M17.5 33.25V24.5H24.5V33.25C24.5 34.2125 25.2875 35 26.25 35H31.5C32.4625 35 33.25 34.2125 33.25 33.25V21H36.225C37.03 21 37.4151 20.0025 36.8025 19.4775L22.1726 6.30001C21.5075 5.70501 20.4925 5.70501 19.8275 6.30001L5.19755 19.4775C4.60255 20.0025 4.97005 21 5.77505 21H8.75005V33.25C8.75005 34.2125 9.53755 35 10.5 35H15.75C16.7126 35 17.5 34.2125 17.5 33.25Z"
              fill="#0071FE"/>
    </symbol>

    <symbol id="car" viewBox="0 0 42 42" fill="none">
        <path d="M33.292 16.8883L31.374 10.9628C31.0965 10.0977 30.5612 9.34536 29.8446 8.81325C29.128 8.28113 28.2667 7.9965 27.384 8.00003H14.63C13.7478 7.9987 12.8875 8.28419 12.1714 8.81599C11.4552 9.3478 10.9194 10.0989 10.64 10.9628L8.722 16.8883C7.714 17.3219 7 18.3624 7 19.5475V26.7738C7.00295 27.2782 7.13372 27.7731 7.37933 28.2091C7.62493 28.6452 7.97681 29.0074 8.4 29.2596V32.5548C8.4 33.3496 9.03 34 9.8 34H11.2C11.97 34 12.6 33.3496 12.6 32.5548V29.6643H29.4V32.5548C29.4 33.3496 30.03 34 30.8 34H32.2C32.97 34 33.6 33.3496 33.6 32.5548V29.2596C34.0232 29.0074 34.3751 28.6452 34.6207 28.2091C34.8663 27.7731 34.997 27.2782 35 26.7738V19.5475C35 18.348 34.286 17.3219 33.278 16.8883H33.292ZM30.814 23.1607C30.814 24.3602 29.876 25.3285 28.714 25.3285C27.552 25.3285 26.614 24.3602 26.614 23.1607C26.614 21.9611 27.552 20.9928 28.714 20.9928C29.876 20.9928 30.814 21.9611 30.814 23.1607ZM15.414 23.1607C15.414 24.3602 14.476 25.3285 13.314 25.3285C12.152 25.3285 11.214 24.3602 11.214 23.1607C11.214 21.9611 12.152 20.9928 13.314 20.9928C14.476 20.9928 15.414 21.9611 15.414 23.1607ZM14.63 10.8761H27.398C27.6915 10.8753 27.9778 10.9698 28.2165 11.1461C28.4551 11.3225 28.6341 11.5718 28.728 11.8588L30.282 16.6571H11.76L13.314 11.8588C13.4079 11.5718 13.5869 11.3225 13.8255 11.1461C14.0642 10.9698 14.3505 10.8753 14.644 10.8761H14.63Z"
              fill="#FC4E1B"/>
    </symbol>

    <symbol id="slider-icon" viewBox="0 0 48 48" fill="none">
        <rect x="2.09815e-06" y="48" width="48" height="48" rx="10" transform="rotate(-90 2.09815e-06 48)"
              fill="white"/>
        <path d="M20 15L29 24L20 33" stroke="#3B5C84" stroke-width="2.5" stroke-linecap="round"/>
    </symbol>

    <symbol id="work" viewBox="0 0 42 42" fill="none">
        <path d="M9.8 34C9.03 34 8.37107 33.7219 7.8232 33.1658C7.27533 32.6097 7.00093 31.9404 7 31.1579V15.5263C7 14.7447 7.2744 14.0759 7.8232 13.5198C8.372 12.9637 9.03093 12.6852 9.8 12.6842H15.4V9.8421C15.4 9.06053 15.6744 8.39168 16.2232 7.83558C16.772 7.27947 17.4309 7.00095 18.2 7H23.8C24.57 7 25.2294 7.27853 25.7782 7.83558C26.327 8.39263 26.6009 9.06147 26.6 9.8421V12.6842H32.2C32.97 12.6842 33.6294 12.9627 34.1782 13.5198C34.727 14.0768 35.0009 14.7457 35 15.5263V31.1579C35 31.9395 34.7261 32.6088 34.1782 33.1658C33.6303 33.7229 32.9709 34.0009 32.2 34H9.8ZM18.2 12.6842H23.8V9.8421H18.2V12.6842Z"
              fill="#03B085"/>
    </symbol>

    <symbol id="hobby-sport" viewBox="0 0 42 42" fill="none">
        <path d="M10.045 29.715C9.065 28.455 8.31274 27.0844 7.7882 25.6032C7.26367 24.122 7.00094 22.5876 7 21C6.99907 19.4124 7.2618 17.8785 7.7882 16.3982C8.3146 14.9179 9.06687 13.5469 10.045 12.285C11.3983 13.335 12.46 14.6244 13.23 16.1532C14 17.682 14.385 19.2976 14.385 21C14.385 22.7024 14 24.3185 13.23 25.8482C12.46 27.3779 11.3983 28.6669 10.045 29.715ZM16.1882 34.16C14.6594 33.6 13.265 32.7833 12.005 31.71C13.615 30.38 14.875 28.7877 15.785 26.9332C16.695 25.0787 17.15 23.1009 17.15 21C17.15 18.8991 16.695 16.9218 15.785 15.0682C14.875 13.2146 13.615 11.6219 12.005 10.29C13.265 9.21667 14.6594 8.4 16.1882 7.84C17.717 7.28 19.3209 7 21 7C22.6791 7 24.2835 7.28 25.8132 7.84C27.3429 8.4 28.7369 9.21667 29.995 10.29C28.385 11.62 27.125 13.2127 26.215 15.0682C25.305 16.9237 24.85 18.9009 24.85 21C24.85 23.0991 25.305 25.0768 26.215 26.9332C27.125 28.7896 28.385 30.3819 29.995 31.71C28.735 32.7833 27.3406 33.6 25.8118 34.16C24.283 34.72 22.6791 35 21 35C19.3209 35 17.717 34.72 16.1882 34.16ZM31.955 29.715C30.6017 28.665 29.54 27.3761 28.77 25.8482C28 24.3203 27.615 22.7043 27.615 21C27.615 19.2957 28 17.6797 28.77 16.1518C29.54 14.6239 30.6017 13.335 31.955 12.285C32.935 13.545 33.6877 14.9161 34.2132 16.3982C34.7387 17.8803 35.0009 19.4143 35 21C34.9991 22.5857 34.7368 24.1201 34.2132 25.6032C33.6896 27.0863 32.9369 28.4569 31.955 29.715Z"
              fill="#FEAB00"/>
    </symbol>

    <symbol id="fashion-style" viewBox="0 0 42 42" fill="none">
        <path d="M25.0362 8.01046L25.1692 8.00035L25.326 8.00613L25.4842 8.03068L25.6424 8.07401L34.0424 10.9629C34.2949 11.0497 34.5182 11.209 34.686 11.4221C34.8539 11.6352 34.9594 11.8933 34.9902 12.1661L35 12.3336V19.5557C35 19.9095 34.8741 20.251 34.6462 20.5154C34.4183 20.7798 34.1044 20.9487 33.7638 20.9901L33.6 21.0002H30.8V31.1111C30.8002 31.84 30.5334 32.5419 30.0531 33.0764C29.5728 33.6108 28.9144 33.9381 28.21 33.9928L28 34H14C13.2936 34.0002 12.6132 33.725 12.0952 33.2294C11.5773 32.7338 11.26 32.0546 11.207 31.3278L11.2 31.1111V21.0002H8.4C8.05709 21.0001 7.72613 20.8702 7.46988 20.6351C7.21363 20.4001 7.04992 20.0761 7.0098 19.7247L7 19.5557V12.3336C6.99991 12.059 7.07572 11.79 7.21855 11.5582C7.36138 11.3264 7.5653 11.1414 7.8064 11.025L7.9576 10.9629L16.3576 8.07401C16.5681 8.00169 16.7922 7.982 17.0115 8.01657C17.2308 8.05114 17.4389 8.13898 17.6189 8.27285C17.7988 8.40672 17.9453 8.58278 18.0464 8.78654C18.1474 8.99029 18.2001 9.2159 18.2 9.44477C18.1967 10.1944 18.4761 10.916 18.9789 11.4571C19.4818 11.9982 20.1688 12.3164 20.8949 12.3445C21.621 12.3726 22.3292 12.1085 22.87 11.6078C23.4108 11.1072 23.7418 10.4092 23.793 9.66144L23.8056 9.31478L23.8294 9.15155L23.8812 8.958L23.9428 8.80923L24.0128 8.67634L24.108 8.54201L24.2046 8.42645C24.2821 8.34942 24.3637 8.28201 24.4496 8.22423L24.584 8.14768L24.7282 8.08412L24.8794 8.0379L25.0362 8.01046Z"
              fill="#8175E6"/>
    </symbol>

    <symbol id="animal" viewBox="0 0 42 42" fill="none">
        <path d="M20.1236 13.8242V13.8578C20.1234 14.5147 20.0112 15.1666 19.792 15.7853L19.8049 15.7452C19.5898 16.3472 19.2268 16.8846 18.7497 17.3075L18.7454 17.3107C18.2922 17.7214 17.6892 17.9716 17.0281 17.9716H16.9765H16.9786C16.1067 17.9651 15.272 17.6155 14.653 16.9976C13.9773 16.3741 13.4519 15.6037 13.1166 14.7452L13.1026 14.704C12.7783 13.8924 12.607 13.0272 12.5976 12.1525V12.1146C12.5976 11.4385 12.715 10.7895 12.9292 10.1871L12.9163 10.2272C13.1314 9.62523 13.4944 9.08779 13.9715 8.66492L13.9758 8.66167C14.4623 8.22115 15.098 7.98468 15.7523 8.00077H15.7491C16.6214 8.00499 17.457 8.35494 18.0747 8.97478C18.7433 9.59853 19.2642 10.3653 19.5992 11.2186L19.6132 11.2597C19.9244 12.0181 20.1085 12.899 20.1182 13.821V13.8242H20.1236ZM14.3688 22.002L14.3698 22.093C14.3711 22.9077 14.1209 23.7028 13.6538 24.3682L13.6625 24.3552C13.4495 24.664 13.1654 24.9163 12.8345 25.0906C12.5036 25.265 12.1356 25.3561 11.7621 25.3563L11.6555 25.3542H11.6609C10.7785 25.344 9.9304 25.0086 9.27717 24.4116L9.2804 24.4148C8.58554 23.8162 8.02354 23.0772 7.63087 22.2459C7.23819 21.4145 7.02362 20.5094 7.00108 19.5892V19.5805L7 19.4917C7 18.6412 7.26486 17.8524 7.71599 17.2056L7.70737 17.2186C7.92891 16.8926 8.22955 16.6289 8.58078 16.4525C8.93201 16.2762 9.32218 16.1931 9.71429 16.211H9.70891C10.5913 16.2212 11.4394 16.5566 12.0927 17.1536L12.0894 17.1504C12.7847 17.7531 13.3468 18.4957 13.7394 19.3304C14.132 20.1652 14.3464 21.0734 14.3688 21.9966V22.0042V22.002ZM21.0021 21.5448C22.5739 21.6318 24.0792 22.2118 25.3067 23.2035L25.2916 23.1916C26.7942 24.2646 28.0886 25.6056 29.1106 27.1483L29.145 27.2036C30.0665 28.4497 30.6051 29.9401 30.6944 31.4907L30.6954 31.5124L30.6976 31.6067C30.6976 32.0444 30.591 32.4582 30.4026 32.8212L30.409 32.8071C30.2284 33.14 29.946 33.4056 29.6037 33.5644L29.5929 33.5688C29.2796 33.7194 28.9146 33.8374 28.5335 33.9035L28.5076 33.9068C28.1102 33.9701 27.7084 34.0012 27.3061 34H27.2253H27.2296C26.1204 33.9254 25.0321 33.6593 24.0125 33.2134L24.075 33.2383C23.1124 32.8157 22.086 32.5589 21.0388 32.4788L21.0054 32.4767C19.8178 32.5655 18.7174 32.8342 17.6946 33.2556L17.7667 33.2296C16.7 33.66 15.571 33.9139 14.4237 33.9815L14.3935 33.9826C12.3364 33.9841 11.3078 33.161 11.3078 31.5135C11.3544 30.3591 11.6844 29.2342 12.2682 28.2393L12.2499 28.2718C12.8803 27.0801 13.6716 25.9819 14.6013 25.0085L14.597 25.0129C15.5065 24.0577 16.5462 23.2373 17.6849 22.5762L17.7517 22.5405C18.7244 21.9295 19.8391 21.5855 20.9849 21.5426H20.9978L21.0021 21.5448ZM25.0235 17.9727H24.974C24.339 17.9737 23.7263 17.7374 23.2545 17.3096L23.2567 17.3118C22.7824 16.8961 22.4209 16.366 22.2059 15.7712L22.1973 15.7452C21.9844 15.139 21.8763 14.5007 21.8775 13.8578V13.8221V13.8242C21.8872 12.8979 22.0713 12.0181 22.3997 11.2121L22.3824 11.2597C22.7169 10.3925 23.2418 9.61253 23.9178 8.97803L23.9221 8.97478C24.5397 8.3556 25.3748 8.00607 26.2466 8.00185H26.2972C26.9583 8.00185 27.5612 8.25321 28.0167 8.66492L28.0145 8.66275C28.4861 9.0777 28.85 9.60425 29.0654 10.2034L29.074 10.2294C29.2796 10.7949 29.398 11.4483 29.398 12.1287V12.1503V12.1492C29.3897 13.0425 29.2125 13.9261 28.8759 14.7527L28.8931 14.7051C28.5599 15.5778 28.0308 16.3613 27.347 16.9944L27.3427 16.9987C26.7234 17.6151 25.8892 17.9635 25.0181 17.9695H25.0171L25.0235 17.9727ZM32.2911 16.2132L32.3901 16.211C33.1772 16.211 33.8716 16.6076 34.2872 17.2132L34.2926 17.2208C34.7552 17.8876 35.0022 18.6817 35 19.4949L34.9989 19.5881V19.5838C34.9774 20.5033 34.7642 21.408 34.373 22.2393C33.9819 23.0706 33.4215 23.81 32.7282 24.4094L32.7196 24.417C32.0678 25.0125 31.2215 25.3467 30.3412 25.3563H30.3391C29.9502 25.3742 29.5632 25.2927 29.2141 25.1193C28.8651 24.946 28.5653 24.6864 28.3429 24.365L28.3375 24.3574C27.8553 23.6689 27.6075 22.8418 27.6312 21.9998V22.0042C27.6524 21.0814 27.8654 20.1734 28.2564 19.3385C28.6475 18.5037 29.2081 17.7605 29.9019 17.1569L29.9105 17.1493C30.5621 16.5564 31.4062 16.2232 32.2846 16.2121H32.2868L32.2911 16.2132Z"
              fill="#5FB0D8"/>
    </symbol>

    <symbol id="business-services" viewBox="0 0 42 42" fill="none">
        <path d="M31.0678 13.9054C31.2345 13.7387 31.4405 13.6165 31.6669 13.5502C31.8932 13.4839 32.1326 13.4756 32.363 13.526C32.5934 13.5764 32.8074 13.6839 32.9854 13.8387C33.1633 13.9935 33.2995 14.1905 33.3813 14.4117C34.0354 16.1687 34.1743 18.0758 33.7816 19.909C33.3888 21.7421 32.4809 23.4251 31.1644 24.7599C29.8479 26.0948 28.1777 27.026 26.35 27.4442C24.5224 27.8624 22.6133 27.7502 20.8473 27.1206L15.2033 32.7642C14.8115 33.156 14.3463 33.4668 13.8344 33.6788C13.3224 33.8909 12.7737 34 12.2196 34C11.6655 34 11.1168 33.8909 10.6048 33.6788C10.0929 33.4668 9.62773 33.156 9.2359 32.7642C8.84407 32.3724 8.53325 31.9073 8.3212 31.3953C8.10914 30.8834 8 30.3348 8 29.7807C8 29.2266 8.10914 28.6779 8.3212 28.166C8.53326 27.6541 8.84407 27.189 9.2359 26.7972L14.8799 21.1536C14.25 19.3891 14.1367 17.4814 14.5535 15.6548C14.9702 13.8282 15.8996 12.1584 17.2324 10.8415C18.5653 9.52473 20.2463 8.61558 22.0779 8.2209C23.9096 7.82623 25.8159 7.9624 27.5728 8.61344C27.794 8.69529 27.9911 8.83144 28.1458 9.00938C28.3006 9.18732 28.4082 9.40132 28.4586 9.6317C28.509 9.86208 28.5007 10.1014 28.4344 10.3278C28.3681 10.5541 28.2459 10.7601 28.0791 10.9268L24.7656 14.2401C24.3698 14.6357 24.1474 15.1722 24.1473 15.7317C24.1472 16.2913 24.3693 16.8279 24.7649 17.2236C25.1605 17.6194 25.697 17.8418 26.2566 17.8419C26.8162 17.842 27.3529 17.6199 27.7486 17.2243L31.0678 13.9054Z"
              fill="#C26EB6"/>
    </symbol>

    <symbol id="toy" viewBox="0 0 42 42" fill="none">
        <path d="M26.4167 31.299C25.2178 31.299 24.25 30.0857 24.25 28.5835C24.25 27.0957 25.2178 25.8824 26.4167 25.8824C27.6156 25.8824 28.5833 27.0957 28.5833 28.5835C28.5833 30.0857 27.6156 31.299 26.4167 31.299ZM21 19.917C19.2089 19.917 17.75 18.7037 17.75 17.216C17.75 15.7138 19.2089 14.5005 21 14.5005C22.7911 14.5005 24.25 15.7138 24.25 17.216C24.25 18.7037 22.7911 19.917 21 19.917ZM15.5833 31.299C14.3845 31.299 13.4167 30.0857 13.4167 28.5835C13.4167 27.0957 14.3845 25.8824 15.5833 25.8824C16.7822 25.8824 17.75 27.0957 17.75 28.5835C17.75 30.0857 16.7822 31.299 15.5833 31.299ZM21 15.5838C21.5922 15.5838 22.0833 16.0749 22.0833 16.6671C22.0833 17.2593 21.5922 17.7504 21 17.7504C20.4078 17.7504 19.9167 17.2593 19.9167 16.6671C19.9167 16.0749 20.4078 15.5838 21 15.5838ZM30.75 21.0003C30.2878 21.0003 29.84 21.1015 29.4356 21.2892C28.7422 20.4081 27.8033 19.6571 26.6767 19.0793C27.5 17.9238 27.9911 16.5227 27.9911 15.0061V14.9194C29.5656 14.5872 30.75 13.1861 30.75 11.4962C30.75 9.5751 29.1756 8.00069 27.2544 8.00069C26.2578 8.00069 25.3333 8.41957 24.7267 9.084C23.6126 8.37601 22.32 8 21 8C19.68 8 18.3874 8.37601 17.2733 9.084C16.6667 8.41957 15.7422 8.00069 14.7456 8.00069C12.8245 8.00069 11.25 9.5751 11.25 11.4962C11.25 13.1717 12.4345 14.5727 13.9945 14.9194V15.0061C13.9945 16.5227 14.5 17.9382 15.3089 19.0793C14.1967 19.6571 13.2578 20.4081 12.5645 21.2892C12.0708 21.0669 11.5293 20.9719 10.9895 21.0131C10.4497 21.0543 9.92882 21.2302 9.47463 21.5249C9.02044 21.8195 8.64745 22.2234 8.38982 22.6996C8.1322 23.1757 7.99817 23.7089 8.00002 24.2503C8.00002 26.0558 9.44446 27.5002 11.25 27.5002H11.3367C11.2789 27.8468 11.25 28.2224 11.25 28.5835C11.25 31.5734 13.1856 34 15.5833 34C17.0422 34 18.3278 33.09 19.1222 31.7034C19.7289 31.7901 20.35 31.8334 21 31.8334C21.65 31.8334 22.2711 31.7901 22.8778 31.7034C23.6722 33.09 24.9578 34 26.4167 34C28.8144 34 30.75 31.5734 30.75 28.5835C30.75 28.2224 30.7211 27.8468 30.6633 27.5002H30.75C32.5556 27.5002 34 26.0558 34 24.2503C34 22.4448 32.5556 21.0003 30.75 21.0003Z"
              fill="#FC4E1B"/>
    </symbol>

    <symbol id="electronics" viewBox="0 0 42 42" fill="none">
        <path d="M7 8.75C7 8.28587 7.18437 7.84075 7.51256 7.51256C7.84075 7.18437 8.28587 7 8.75 7H29.75C30.2141 7 30.6592 7.18437 30.9874 7.51256C31.3156 7.84075 31.5 8.28587 31.5 8.75V17.5H24.5C23.5717 17.5 22.6815 17.8687 22.0251 18.5251C21.3687 19.1815 21 20.0717 21 21V31.5H10.5V28H17.5V26.25H8.75C8.28587 26.25 7.84075 26.0656 7.51256 25.7374C7.18437 25.4092 7 24.9641 7 24.5V8.75Z"
              fill="#03B085"/>
        <path d="M22.75 21C22.75 20.5359 22.9344 20.0908 23.2626 19.7626C23.5908 19.4344 24.0359 19.25 24.5 19.25H33.25C33.7141 19.25 34.1592 19.4344 34.4874 19.7626C34.8156 20.0908 35 20.5359 35 21V33.25C35 33.7141 34.8156 34.1592 34.4874 34.4874C34.1592 34.8156 33.7141 35 33.25 35H24.5C24.0359 35 23.5908 34.8156 23.2626 34.4874C22.9344 34.1592 22.75 33.7141 22.75 33.25V21Z"
              fill="#03B085"/>
    </symbol>

    <symbol id="spares" viewBox="0 0 42 42" fill="none">
        <path d="M20.5028 25.55C19.31 25.55 18.1659 25.0706 17.3225 24.2173C16.479 23.364 16.0051 22.2067 16.0051 21C16.0051 19.7933 16.479 18.636 17.3225 17.7827C18.1659 16.9294 19.31 16.45 20.5028 16.45C21.6957 16.45 22.8397 16.9294 23.6832 17.7827C24.5267 18.636 25.0006 19.7933 25.0006 21C25.0006 22.2067 24.5267 23.364 23.6832 24.2173C22.8397 25.0706 21.6957 25.55 20.5028 25.55ZM30.0509 22.261C30.1023 21.845 30.1408 21.429 30.1408 21C30.1408 20.571 30.1023 20.142 30.0509 19.7L32.7624 17.581C33.0065 17.386 33.0708 17.035 32.9166 16.749L30.3464 12.251C30.1922 11.965 29.8453 11.848 29.5626 11.965L26.3627 13.265C25.6945 12.758 25.0006 12.316 24.191 11.991L23.7155 8.546C23.6894 8.39288 23.6106 8.25406 23.493 8.15412C23.3753 8.05418 23.2266 7.99958 23.073 8H17.9327C17.6114 8 17.3416 8.234 17.2902 8.546L16.8147 11.991C16.0051 12.316 15.3112 12.758 14.6429 13.265L11.4431 11.965C11.1604 11.848 10.8134 11.965 10.6592 12.251L8.0891 16.749C7.92204 17.035 7.99914 17.386 8.2433 17.581L10.9548 19.7C10.9034 20.142 10.8648 20.571 10.8648 21C10.8648 21.429 10.9034 21.845 10.9548 22.261L8.2433 24.419C7.99914 24.614 7.92204 24.965 8.0891 25.251L10.6592 29.749C10.8134 30.035 11.1604 30.139 11.4431 30.035L14.6429 28.722C15.3112 29.242 16.0051 29.684 16.8147 30.009L17.2902 33.454C17.3416 33.766 17.6114 34 17.9327 34H23.073C23.3942 34 23.6641 33.766 23.7155 33.454L24.191 30.009C25.0006 29.671 25.6945 29.242 26.3627 28.722L29.5626 30.035C29.8453 30.139 30.1922 30.035 30.3464 29.749L32.9166 25.251C33.0708 24.965 33.0065 24.614 32.7624 24.419L30.0509 22.261Z"
              fill="#FEAB00"/>
    </symbol>

    <symbol id="cart" viewBox="0 0 42 42" fill="none">
        <path d="M14.7 33C13.8254 33 13.0774 32.6947 12.456 32.084C11.8345 31.4733 11.5238 30.7453 11.5238 29.9V17.5333L9.00357 11.6667H6V9H10.8679L13.1464 14.3333H33.55C34.0794 14.3333 34.4821 14.5444 34.7583 14.9667C35.0345 15.3889 35.046 15.8222 34.7929 16.2667L30.8571 23.7C32.031 23.8778 33.0151 24.4 33.8096 25.2667C34.6041 26.1333 35.0009 27.1556 35 28.3333C35 29.6222 34.5342 30.7222 33.6025 31.6333C32.6708 32.5444 31.537 33 30.2012 33C28.8433 33 27.6984 32.5444 26.7668 31.6333C25.8351 30.7222 25.3688 29.6222 25.3679 28.3333C25.3679 27.8889 25.4254 27.4778 25.5405 27.1C25.6556 26.7222 25.8167 26.3556 26.0238 26L21.5012 25.6L17.3583 31.6C17.0591 32.0444 16.6738 32.3889 16.2025 32.6333C15.7311 32.8778 15.2303 33 14.7 33ZM14.7345 30.3C14.7806 30.3 14.8841 30.2444 15.0452 30.1333L18.394 25.3333C17.2663 25.2222 16.3802 24.9613 15.7357 24.5507C15.0913 24.14 14.6079 23.712 14.2857 23.2667V29.9333C14.2857 30.0444 14.3317 30.1333 14.4238 30.2C14.5159 30.2667 14.6194 30.3 14.7345 30.3ZM30.1667 30.3333C30.7651 30.3333 31.2599 30.1391 31.6512 29.7507C32.0425 29.3622 32.2381 28.8898 32.2381 28.3333C32.2381 27.7556 32.0425 27.2778 31.6512 26.9C31.2599 26.5222 30.7651 26.3333 30.1667 26.3333C29.5913 26.3333 29.1024 26.5222 28.7001 26.9C28.2978 27.2778 28.0962 27.7556 28.0952 28.3333C28.0952 28.8889 28.2969 29.3613 28.7001 29.7507C29.1033 30.14 29.5922 30.3342 30.1667 30.3333Z"
              fill="#8175E6"/>
    </symbol>

    <symbol id="heart" viewBox="0 0 18 18" fill="none">
        <path d="M12.1233 3C10.8289 3 10.0155 3.64427 9.55065 4.2104C9.33172 4.47705 8.74073 4.47701 8.5218 4.21034C8.05702 3.64423 7.24372 3 5.94901 3C3.64062 3 2.25 5.20075 2.25 7.01443C2.25 9.38977 6.39449 12.7384 8.20575 14.0883C8.70082 14.4574 9.37155 14.4574 9.8667 14.0884C11.6779 12.7387 15.8224 9.39105 15.8224 7.01497C15.8224 5.20075 14.4328 3 12.1233 3Z"
              fill="white" fill-opacity="0.25" stroke="var(--icon-color, white)" stroke-linecap="round"/>
    </symbol>

    <symbol id="orange-heart" viewBox="0 0 18 18" fill="none">
        <path d="M12.1233 3C10.8289 3 10.0155 3.64427 9.55065 4.2104C9.33172 4.47705 8.74073 4.47701 8.5218 4.21034C8.05702 3.64423 7.24372 3 5.94901 3C3.64062 3 2.25 5.20075 2.25 7.01443C2.25 9.38977 6.39449 12.7384 8.20575 14.0883C8.70082 14.4574 9.37155 14.4574 9.8667 14.0884C11.6779 12.7387 15.8224 9.39105 15.8224 7.01497C15.8224 5.20075 14.4328 3 12.1233 3Z"
              fill="#FE5823"/>
    </symbol>

    <symbol id="blue-check" width="20" height="20" viewBox="0 0 20 20" fill="none">
        <rect width="20" height="20" rx="8" fill="#F3F5F8"/>
        <path d="M14.5713 7.88312L8.33756 14.1169L5.42847 11.2078" stroke="#0071FE" stroke-width="2" stroke-linecap="round"/>
    </symbol>

    <symbol id="breadcrumbs-icon" viewBox="0 0 12 12" fill="none" >
        <path d="M5 3L8 6L5 9" stroke="#101F2F" stroke-linecap="round"/>
    </symbol>



    <symbol id="product-location"  viewBox="0 0 18 18" fill="none" >
        <path fill-rule="evenodd" clip-rule="evenodd" d="M8.75314 16.9241L8.75143 16.9232L8.74714 16.9203L8.73429 16.9107L8.68371 16.8753C8.64029 16.8445 8.57886 16.7995 8.49943 16.7403C8.34171 16.6228 8.118 16.4499 7.851 16.2278C7.15011 15.6453 6.49473 15.013 5.89029 14.3361C4.47257 12.7419 3 10.4668 3 7.86512C3 6.31092 3.63171 4.81923 4.75629 3.7192C5.3121 3.17473 5.9732 2.74253 6.70151 2.44748C7.42983 2.15242 8.21098 2.00035 9 2C9.78899 2.00029 10.5701 2.1523 11.2984 2.44728C12.0268 2.74227 12.6879 3.17439 13.2437 3.71879C14.3693 4.8214 15.0006 6.31206 15 7.86554C15 10.4668 13.5274 12.7419 12.1097 14.3361C11.5053 15.013 10.8499 15.6453 10.149 16.2278C9.88157 16.4499 9.65829 16.6228 9.50057 16.7403C9.4232 16.7982 9.34505 16.8552 9.26614 16.9111L9.25243 16.9203L9.24857 16.9232L9.24686 16.9241C9.099 17.0253 8.901 17.0253 8.75314 16.9241ZM6.85714 7.83345C6.85714 8.386 7.08291 8.91592 7.48477 9.30662C7.88663 9.69733 8.43168 9.91683 9 9.91683C9.56832 9.91683 10.1134 9.69733 10.5152 9.30662C10.9171 8.91592 11.1429 8.386 11.1429 7.83345C11.1429 7.28091 10.9171 6.75099 10.5152 6.36028C10.1134 5.96958 9.56832 5.75008 9 5.75008C8.43168 5.75008 7.88663 5.96958 7.48477 6.36028C7.08291 6.75099 6.85714 7.28091 6.85714 7.83345Z" fill="#FE5823"/>
    </symbol>

    <symbol id="time-clock"  viewBox="0 0 18 18" fill="none" >
        <path d="M9 5.71053V8.86842C9 9.21724 9.28276 9.5 9.63158 9.5H12.7895M9 15.5C5.68629 15.5 3 12.8137 3 9.5C3 6.18629 5.68629 3.5 9 3.5C12.3137 3.5 15 6.18629 15 9.5C15 12.8137 12.3137 15.5 9 15.5Z" stroke="#6B737E" stroke-width="1.25" stroke-linecap="round"/>
    </symbol>

    <symbol id="eye" viewBox="0 0 18 18" fill="none">
        <path d="M15.3681 8.3574C15.6271 8.7522 15.6271 9.2478 15.3681 9.6426C14.5524 10.886 12.4297 13.5 8.99993 13.5C5.57018 13.5 3.44745 10.886 2.63174 9.6426C2.37275 9.2478 2.37275 8.7522 2.63174 8.3574C3.44745 7.11401 5.57018 4.5 8.99993 4.5C12.4297 4.5 14.5524 7.11401 15.3681 8.3574Z" stroke="#6B737E" stroke-width="1.25" stroke-linecap="round"/>
        <path d="M11.25 9C11.25 10.2427 10.2426 11.25 9.00002 11.25C7.75735 11.25 6.75 10.2427 6.75 9C6.75 7.75732 7.75735 6.75 9.00002 6.75C10.2426 6.75 11.25 7.75732 11.25 9Z" stroke="#6B737E" stroke-width="1.25" stroke-linecap="round"/>
    </symbol>


    <symbol id="star" viewBox="0 0 12 12" fill="none">
        <path d="M5.9997 10.053L3.09126 11.8875C2.96278 11.9731 2.82845 12.0098 2.68829 11.9975C2.54812 11.9853 2.42548 11.9364 2.32035 11.8508C2.21523 11.7652 2.13347 11.6583 2.07506 11.5301C2.01666 11.4019 2.00498 11.2581 2.04002 11.0986L2.81093 7.63147L0.235391 5.30167C0.118587 5.1916 0.0457004 5.06612 0.0167328 4.92523C-0.0122347 4.78434 -0.00359123 4.64688 0.0426634 4.51284C0.0889181 4.3788 0.159001 4.26873 0.252912 4.18263C0.346823 4.09653 0.475308 4.0415 0.638367 4.01753L4.03738 3.70566L5.35144 0.440277C5.40984 0.293518 5.50048 0.183449 5.62336 0.110069C5.74624 0.0366896 5.87168 0 5.9997 0C6.12772 0 6.25317 0.0366896 6.37605 0.110069C6.49892 0.183449 6.58956 0.293518 6.64797 0.440277L7.96202 3.70566L11.361 4.01753C11.5246 4.04199 11.653 4.09702 11.7465 4.18263C11.8399 4.26824 11.91 4.37831 11.9567 4.51284C12.0035 4.64737 12.0123 4.78508 11.9834 4.92596C11.9544 5.06685 11.8813 5.19209 11.764 5.30167L9.18847 7.63147L9.95938 11.0986C9.99442 11.2576 9.98274 11.4015 9.92434 11.5301C9.86594 11.6588 9.78417 11.7657 9.67905 11.8508C9.57392 11.9359 9.45128 11.9848 9.31111 11.9975C9.17095 12.0103 9.03662 11.9736 8.90814 11.8875L5.9997 10.053Z" fill="#FEAB00"/>
    </symbol>



    <symbol id="menu-home" viewBox="0 0 32 32" fill="none">
        <rect y="32" width="32" height="32" rx="16" transform="rotate(-90 0 32)" fill="#F3F5F8"/>
        <path d="M21.5 20.5259V14.5032C21.5 14.1123 21.3424 13.7463 21.0493 13.4986C20.2791 12.8475 18.712 11.5535 17.4649 10.4033C16.9084 9.88994 16.0624 9.85751 15.4956 10.3588L11.9989 13.4514C11.6822 13.7315 11.5 14.1403 11.5 14.5706V20.5259C11.5 21.3401 12.1396 22 12.9286 22H13.2857C14.0747 22 14.7143 21.3401 14.7143 20.5259V19.0519C14.7143 18.2377 15.3539 17.5778 16.1429 17.5778H16.8571C17.6461 17.5778 18.2857 18.2377 18.2857 19.0519V20.5259C18.2857 21.3401 18.9253 22 19.7143 22H20.0714C20.8604 22 21.5 21.3401 21.5 20.5259Z" stroke="#6B737E" stroke-width="1.5" stroke-linecap="round"/>
    </symbol>

    <symbol id="menu-heart"  viewBox="0 0 32 32" fill="none">
        <rect y="32" width="32" height="32" rx="16" transform="rotate(-90 0 32)" fill="#F3F5F8"/>
        <path d="M18.9569 11C17.7171 11 16.938 11.6236 16.4928 12.1715C16.2831 12.4296 15.717 12.4296 15.5073 12.1714C15.0621 11.6235 14.2831 11 13.043 11C10.832 11 9.5 13.13 9.5 14.8854C9.5 17.1845 13.4697 20.4255 15.2046 21.732C15.6788 22.0893 16.3212 22.0893 16.7955 21.7322C18.5304 20.4259 22.5 17.1857 22.5 14.886C22.5 13.13 21.169 11 18.9569 11Z" stroke="#6B737E" stroke-width="1.5" stroke-linecap="round"/>
    </symbol>

    <symbol id="menu-add"  viewBox="0 0 32 32" fill="none">
        <rect y="32" width="32" height="32" rx="16" transform="rotate(-90 0 32)" fill="#F3F5F8"/>
        <path d="M10 16H22M16 10V22" stroke="#6B737E" stroke-width="1.5" stroke-linecap="round"/>
    </symbol>

    <symbol id="menu-message" viewBox="0 0 32 32" fill="none">
        <rect y="32" width="32" height="32" rx="16" transform="rotate(-90 0 32)" fill="#F3F5F8"/>
        <path d="M16.5 22C19.8137 22 22.5 19.3137 22.5 16C22.5 12.6863 19.8137 10 16.5 10C13.1863 10 10.5 12.6863 10.5 16C10.5 16.9598 10.7254 17.867 11.1261 18.6715C11.2326 18.8853 11.268 19.1296 11.2063 19.3604L10.8489 20.696C10.6938 21.2758 11.2242 21.8062 11.804 21.6511L13.1396 21.2937C13.3704 21.232 13.6147 21.2674 13.8285 21.3739C14.633 21.7746 15.5402 22 16.5 22Z" stroke="#6B737E" stroke-width="1.5"/>
    </symbol>

    <symbol id="menu-profile" viewBox="0 0 32 32" fill="none">
        <rect y="32" width="32" height="32" rx="16" transform="rotate(-90 0 32)" fill="#F3F5F8"/>
        <path d="M19.25 11.8C19.25 13.3464 18.0188 14.6 16.5 14.6C14.9812 14.6 13.75 13.3464 13.75 11.8C13.75 10.2536 14.9812 9 16.5 9C18.0188 9 19.25 10.2536 19.25 11.8Z" stroke="#6B737E" stroke-width="1.5"/>
        <path d="M22 19.85C22 21.5897 22 23 16.5 23C11 23 11 21.5897 11 19.85C11 18.1103 13.4624 16.7 16.5 16.7C19.5376 16.7 22 18.1103 22 19.85Z" stroke="#6B737E" stroke-width="1.5"/>
    </symbol>


    <symbol id="header-heart"  viewBox="0 0 32 32" fill="none">
        <path d="M4.66699 12.959C4.66699 18.3261 9.08836 21.1862 12.3249 23.7461C13.467 24.6495 14.567 25.5 15.667 25.5C16.767 25.5 17.867 24.6495 19.0091 23.7461C22.2456 21.1862 26.667 18.3261 26.667 12.959C26.667 7.59182 20.6168 3.78555 15.667 8.94545C10.7172 3.78555 4.66699 7.59182 4.66699 12.959Z" fill="#CAD1DC"/>
    </symbol>

    <symbol id="notification"  viewBox="0 0 32 32" fill="none">
        <path d="M11.6134 25.566C12.548 26.7421 14.0161 27.5 15.667 27.5C17.3179 27.5 18.786 26.7421 19.7206 25.566C17.0297 25.927 14.3043 25.927 11.6134 25.566Z" fill="#CAD1DC"/>
        <path d="M23.166 13.2V13.9745C23.166 14.904 23.434 15.8127 23.9361 16.5861L25.1666 18.4813C26.2905 20.2123 25.4325 22.5653 23.4777 23.1127C18.3639 24.5447 12.97 24.5447 7.85628 23.1127C5.90149 22.5653 5.04346 20.2123 6.16739 18.4813L7.39788 16.5861C7.90001 15.8127 8.16796 14.904 8.16796 13.9745V13.2C8.16796 8.94741 11.5254 5.5 15.667 5.5C19.8086 5.5 23.166 8.94741 23.166 13.2Z" fill="#CAD1DC"/>
    </symbol>

    <symbol id="header-message"  viewBox="0 0 32 32" fill="none">
        <path d="M15.667 27.5C21.7421 27.5 26.667 22.5751 26.667 16.5C26.667 10.4249 21.7421 5.5 15.667 5.5C9.59186 5.5 4.66699 10.4249 4.66699 16.5C4.66699 18.2597 5.08017 19.9228 5.8148 21.3977C6.01002 21.7897 6.075 22.2377 5.96182 22.6607L5.30665 25.1093C5.02224 26.1723 5.99471 27.1448 7.05767 26.8603L9.50632 26.2052C9.92932 26.092 10.3773 26.157 10.7693 26.3522C12.2442 27.0868 13.9073 27.5 15.667 27.5Z" fill="#CAD1DC"/>
    </symbol>




    <symbol  id="tg"  viewBox="0 0 30 30" fill="none">
        <rect width="30" height="30" rx="15" fill="#3B5C84"/>
        <path d="M8.79701 14.7905C8.79701 14.7905 14.5466 12.3758 16.5406 11.5255C17.3051 11.1855 19.8974 10.0971 19.8974 10.0971C19.8974 10.0971 21.0938 9.62099 20.9941 10.7773C20.9608 11.2535 20.695 12.92 20.4291 14.7225C20.0303 17.2733 19.5982 20.0621 19.5982 20.0621C19.5982 20.0621 19.5318 20.8444 18.9668 20.9804C18.4018 21.1164 17.4712 20.5043 17.3051 20.3682C17.1721 20.2662 14.8125 18.7357 13.9484 17.9875C13.7157 17.7834 13.4499 17.3753 13.9816 16.8992C15.178 15.7768 16.6071 14.3824 17.4712 13.4982C17.87 13.09 18.2688 12.1377 16.6071 13.2941C14.2475 14.9606 11.9211 16.5251 11.9211 16.5251C11.9211 16.5251 11.3893 16.8651 10.3923 16.5591C9.3952 16.253 8.23198 15.8449 8.23198 15.8449C8.23198 15.8449 7.4344 15.3347 8.79701 14.7905Z" fill="white"/>
    </symbol>

    <symbol id="max"  viewBox="0 0 30 30" fill="none">
        <rect width="30" height="30" rx="15" fill="#3B5C84"/>
        <path d="M14.5418 9.00847C10.9672 9.19589 8.6076 12.009 8.75668 15.5563C8.8218 17.109 9.44383 18.445 9.5912 19.9186C9.6289 20.3004 9.51923 20.7715 9.95792 20.9383C10.4977 21.1429 11.3254 20.799 11.7778 20.4844C11.932 20.3795 12.0794 20.2574 12.1925 20.1061C12.6603 20.4173 13.1041 20.7182 13.661 20.8523C16.1132 21.4421 18.8001 20.0923 19.9945 17.924C22.2393 13.8506 19.2045 8.7643 14.5418 9.00847ZM13.1538 17.5096C12.9602 17.661 12.7734 17.8673 12.5592 17.9859C12.249 18.1527 12.153 17.9791 12.0365 17.7039C11.6698 16.8287 11.6253 15.3379 11.8395 14.4214C12.1273 13.1748 13.0887 12.0778 14.4099 11.9608C15.7465 11.8422 16.9871 12.5231 17.5475 13.7525C18.7881 16.4883 15.6128 19.1896 13.1538 17.5114V17.5096Z" fill="white"/>
    </symbol>

    <symbol id="vk"  viewBox="0 0 30 30" fill="none" >
        <rect width="30" height="30" rx="15" fill="#3B5C84"/>
        <path fill-rule="evenodd" clip-rule="evenodd" d="M23.587 10.6771C23.7121 10.2868 23.587 10 22.9914 10H21.0222C20.5215 10 20.2907 10.2478 20.1655 10.521C20.1655 10.521 19.1641 12.8043 17.7455 14.2875C17.2865 14.7169 17.0779 14.8535 16.8275 14.8535C16.7024 14.8535 16.5212 14.7169 16.5212 14.3266V10.6771C16.5212 10.2087 16.3759 10 15.9586 10H12.8641C12.5512 10 12.363 10.2174 12.363 10.4234C12.363 10.8674 13.0723 10.9698 13.1454 12.2189V14.9316C13.1454 15.5263 13.0306 15.6341 12.7802 15.6341C12.1127 15.6341 10.4888 13.3406 9.5257 10.7162C9.33695 10.2061 9.14764 10 8.64437 10H6.67516C6.11253 10 6 10.2478 6 10.521C6 11.0089 6.6676 13.4289 9.10848 16.6294C10.7357 18.8152 13.0284 20 15.1146 20C16.3663 20 16.5212 19.7368 16.5212 19.2836V17.6316C16.5212 17.1053 16.6398 17.0002 17.0362 17.0002C17.3282 17.0002 17.8289 17.1368 18.9972 18.1907C20.3324 19.4397 20.5525 20 21.3036 20H23.2728C23.8354 20 24.1167 19.7368 23.9544 19.2175C23.7768 18.6999 23.1394 17.949 22.2935 17.0588C21.8345 16.5514 21.1461 16.0049 20.9374 15.7317C20.6453 15.3804 20.7288 15.2243 20.9374 14.912C20.9374 14.912 23.3366 11.7505 23.587 10.6771Z" fill="white"/>
    </symbol>


    <symbol id="box-heart" viewBox="0 0 38 38" fill="none" >
        <rect x="1.66103e-06" y="38" width="38" height="38" rx="10" transform="rotate(-90 1.66103e-06 38)" fill="white"/>
        <path d="M22.3667 12C20.7454 12 19.7266 12.7936 19.1444 13.491C18.8702 13.8195 18.1299 13.8194 17.8557 13.4909C17.2736 12.7936 16.2549 12 14.6332 12C11.7418 12 10 14.711 10 16.9451C10 19.8712 15.1912 23.9961 17.4598 25.659C18.0799 26.1136 18.9201 26.1137 19.5403 25.6591C21.8089 23.9965 27 19.8727 27 16.9458C27 14.711 25.2595 12 22.3667 12Z" stroke="#3B5C84" stroke-width="1.5" stroke-linecap="round"/>
    </symbol>

    <symbol id="box-share"  viewBox="0 0 38 38" fill="none">
        <rect x="1.66103e-06" y="38" width="38" height="38" rx="10" transform="rotate(-90 1.66103e-06 38)" fill="white"/>
        <path d="M16 19H15.25C15.25 19.9665 14.4665 20.75 13.5 20.75V21.5V22.25C15.2949 22.25 16.75 20.7949 16.75 19H16ZM13.5 21.5V20.75C12.5335 20.75 11.75 19.9665 11.75 19H11H10.25C10.25 20.7949 11.7051 22.25 13.5 22.25V21.5ZM11 19H11.75C11.75 18.0335 12.5335 17.25 13.5 17.25V16.5V15.75C11.7051 15.75 10.25 17.2051 10.25 19H11ZM13.5 16.5V17.25C14.4665 17.25 15.25 18.0335 15.25 19H16H16.75C16.75 17.2051 15.2949 15.75 13.5 15.75V16.5ZM16 17L16.4301 17.6144L21.4301 14.1144L21 13.5L20.5699 12.8856L15.5699 16.3856L16 17ZM16 21L15.5699 21.6144L20.5699 25.1144L21 24.5L21.4301 23.8856L16.4301 20.3856L16 21ZM26 25.5H25.25C25.25 26.4665 24.4665 27.25 23.5 27.25V28V28.75C25.2949 28.75 26.75 27.2949 26.75 25.5H26ZM23.5 28V27.25C22.5335 27.25 21.75 26.4665 21.75 25.5H21H20.25C20.25 27.2949 21.7051 28.75 23.5 28.75V28ZM21 25.5H21.75C21.75 24.5335 22.5335 23.75 23.5 23.75V23V22.25C21.7051 22.25 20.25 23.7051 20.25 25.5H21ZM23.5 23V23.75C24.4665 23.75 25.25 24.5335 25.25 25.5H26H26.75C26.75 23.7051 25.2949 22.25 23.5 22.25V23ZM26 12.5H25.25C25.25 13.4665 24.4665 14.25 23.5 14.25V15V15.75C25.2949 15.75 26.75 14.2949 26.75 12.5H26ZM23.5 15V14.25C22.5335 14.25 21.75 13.4665 21.75 12.5H21H20.25C20.25 14.2949 21.7051 15.75 23.5 15.75V15ZM21 12.5H21.75C21.75 11.5335 22.5335 10.75 23.5 10.75V10V9.25C21.7051 9.25 20.25 10.7051 20.25 12.5H21ZM23.5 10V10.75C24.4665 10.75 25.25 11.5335 25.25 12.5H26H26.75C26.75 10.7051 25.2949 9.25 23.5 9.25V10Z" fill="#3B5C84"/>
    </symbol>

    <symbol id="box-back"  viewBox="0 0 38 38" fill="none">
        <rect x="1.66103e-06" y="38" width="38" height="38" rx="10" transform="rotate(-90 1.66103e-06 38)" fill="white"/>
        <path d="M26 19L11 19M16 24L11 19L16 14" stroke="#3B5C84" stroke-width="1.5" stroke-linecap="round"/>
    </symbol>


    <symbol id="red-flag"  viewBox="0 0 18 18" fill="none">
        <path d="M6 2.25V3.75M6 3.75H15L13.5 6.75L15 9.75H6M6 3.75V9.75M6 15.75V9.75" stroke="#EF1C1C" stroke-width="1.5" stroke-linecap="round" stroke-linejoin="round"/>
    </symbol>

    <symbol id="camera"  viewBox="0 0 32 32" fill="none">
        <circle cx="16" cy="16" r="16" fill="#F3F5F8"/>
        <ellipse cx="16.0006" cy="16.4074" rx="2.4" ry="2.22222" stroke="#6B737E" stroke-width="1.5"/>
        <path d="M14.2222 22.3333H17.7778C20.2746 22.3333 21.523 22.3333 22.4198 21.7886C22.808 21.5528 23.1414 21.2497 23.4008 20.8968C24 20.0815 24 18.9466 24 16.6768C24 14.4069 24 13.272 23.4008 12.4567C23.1414 12.1038 22.808 11.8008 22.4198 11.5649C21.8436 11.2149 21.1221 11.0898 20.0176 11.0451C19.4905 11.0451 19.0367 10.682 18.9333 10.2121C18.7783 9.50732 18.0976 9 17.3069 9H14.6931C13.9024 9 13.2217 9.50732 13.0667 10.2121C12.9633 10.682 12.5095 11.0451 11.9824 11.0451C10.8779 11.0898 10.1564 11.2149 9.58019 11.5649C9.19196 11.8008 8.85863 12.1038 8.59922 12.4567C8 13.272 8 14.4069 8 16.6768C8 18.9466 8 20.0815 8.59922 20.8968C8.85863 21.2497 9.19196 21.5528 9.58019 21.7886C10.477 22.3333 11.7254 22.3333 14.2222 22.3333Z" stroke="#6B737E" stroke-width="1.5"/>
        <path d="M21.6008 14.1852H20.8008" stroke="#6B737E" stroke-width="1.5" stroke-linecap="round"/>
    </symbol>



    <symbol id="buying"  viewBox="0 0 22 22" fill="none">
        <mask id="path-1-inside-1_277_12376" fill="white">
            <path d="M4.19701 9.70998C4.71672 6.97895 4.97658 5.61344 5.96312 4.80672C6.94965 4 8.35969 4 11.1798 4H11.8202C14.6403 4 16.0503 4 17.0369 4.80672C18.0234 5.61344 18.2833 6.97895 18.803 9.70998C19.5338 13.5503 19.8992 15.4705 18.8339 16.7352C17.7685 18 15.7858 18 11.8202 18H11.1798C7.21424 18 5.23147 18 4.16614 16.7352C3.10081 15.4705 3.46621 13.5503 4.19701 9.70998Z"/>
        </mask>
        <path d="M9.69343 7.24676C9.55357 6.85687 9.12412 6.65419 8.73423 6.79405C8.34435 6.93391 8.14166 7.36335 8.28152 7.75324L8.98747 7.5L9.69343 7.24676ZM14.7186 7.75324C14.8584 7.36335 14.6557 6.93391 14.2659 6.79405C13.876 6.65419 13.4465 6.85687 13.3067 7.24676L14.0126 7.5L14.7186 7.75324ZM8.98747 7.5L8.28152 7.75324C8.75273 9.0668 10.0193 10 11.5 10V9.25V8.5C10.6608 8.5 9.95369 7.97228 9.69343 7.24676L8.98747 7.5ZM11.5 9.25V10C12.9808 10 14.2474 9.0668 14.7186 7.75324L14.0126 7.5L13.3067 7.24676C13.0464 7.97228 12.3393 8.5 11.5 8.5V9.25ZM4.16614 16.7352L3.01889 17.7016L3.01889 17.7016L4.16614 16.7352ZM4.19701 9.70998L5.67057 9.99039L4.19701 9.70998ZM18.803 9.70998L17.3294 9.9904L18.803 9.70998ZM5.96312 4.80672L5.01358 3.64552L5.01358 3.64552L5.96312 4.80672ZM11.1798 4V5.5H11.8202V4V2.5H11.1798V4ZM11.8202 18V16.5H11.1798V18V19.5H11.8202V18ZM11.1798 18V16.5C9.15145 16.5 7.78983 16.4965 6.79421 16.3565C5.8366 16.2219 5.50416 15.9954 5.31339 15.7689L4.16614 16.7352L3.01889 17.7016C3.89345 18.7399 5.08506 19.1457 6.37655 19.3273C7.63003 19.5035 9.24256 19.5 11.1798 19.5V18ZM4.19701 9.70998L2.72346 9.42957C2.36683 11.3036 2.06496 12.87 2.0095 14.122C1.95209 15.418 2.14051 16.6587 3.01889 17.7016L4.16614 16.7352L5.31339 15.7689C5.12644 15.5469 4.9649 15.1953 5.00656 14.2548C5.05016 13.2705 5.29639 11.9567 5.67057 9.99039L4.19701 9.70998ZM4.16614 16.7352M18.803 9.70998L17.3294 9.9904C17.7036 11.9567 17.9498 13.2705 17.9934 14.2548C18.0351 15.1953 17.8736 15.5469 17.6866 15.7689L18.8339 16.7352L19.9811 17.7016C20.8595 16.6587 21.0479 15.4179 20.9905 14.122C20.935 12.87 20.6332 11.3036 20.2765 9.42957L18.803 9.70998ZM11.8202 18V19.5C13.7574 19.5 15.37 19.5035 16.6234 19.3273C17.9149 19.1457 19.1065 18.7399 19.9811 17.7016L18.8339 16.7352L17.6866 15.7689C17.4958 15.9954 17.1634 16.2219 16.2058 16.3565C15.2102 16.4965 13.8485 16.5 11.8202 16.5V18ZM18.8339 16.7352M11.8202 4V5.5C13.2677 5.5 14.2181 5.50259 14.9349 5.58985C15.6121 5.67229 15.8975 5.81271 16.0873 5.96791L17.0369 4.80672L17.9864 3.64552C17.1897 2.99401 16.2769 2.73107 15.2974 2.61183C14.3575 2.49741 13.1928 2.5 11.8202 2.5V4ZM18.803 9.70998L20.2765 9.42957C20.0239 8.10184 19.8111 6.96901 19.5223 6.07545C19.2202 5.14061 18.7855 4.29895 17.9864 3.64552L17.0369 4.80672L16.0873 5.96791C16.2748 6.1212 16.4633 6.36566 16.6677 6.99801C16.8854 7.67165 17.0624 8.58709 17.3294 9.9904L18.803 9.70998ZM17.0369 4.80672M11.1798 4V2.5C9.80721 2.5 8.64253 2.49741 7.7026 2.61183C6.72313 2.73107 5.81032 2.99401 5.01358 3.64552L5.96312 4.80672L6.91265 5.96791C7.10245 5.81271 7.38793 5.67229 8.06514 5.58985C8.78188 5.50259 9.73226 5.5 11.1798 5.5V4ZM4.19701 9.70998L5.67057 9.99039C5.93761 8.58709 6.11461 7.67165 6.33231 6.99801C6.53668 6.36566 6.72519 6.1212 6.91265 5.96791L5.96312 4.80672L5.01358 3.64552C4.2145 4.29895 3.77982 5.14061 3.47769 6.07545C3.18891 6.96901 2.97612 8.10184 2.72346 9.42957L4.19701 9.70998ZM5.96312 4.80672" fill="#0071FE" mask="url(#path-1-inside-1_277_12376)"/>
    </symbol>

    <symbol id="selling"  viewBox="0 0 22 22" fill="none" >
        <path d="M19.5 9.73684V6.36842L18.9947 5.69474C18.0027 4.37263 17.5067 3.71158 16.796 3.35537C16.0844 3 15.2583 3 13.6053 3H9.39474C7.74168 3 6.91558 3 6.204 3.35537C5.49326 3.71158 4.99726 4.37263 4.00526 5.69474L3.5 6.36842V12.2632C3.5 15.4387 3.50084 17.0261 4.48695 18.0131C5.47305 19 7.06126 19 10.2368 19H12.7632M3.5 6.36842H19.5" stroke="#0071FE" stroke-width="1.5" stroke-linecap="round" stroke-linejoin="round"/>
        <path d="M16.5528 11.8421C14.925 11.8421 13.6055 13.1373 13.6055 14.7339C13.6055 15.6476 13.9743 16.3575 14.7112 16.9916C15.2299 17.4387 16.1747 18.3979 16.5528 19C16.9495 18.4105 17.8749 17.4387 18.3954 16.9916C19.1322 16.3575 19.5002 15.6476 19.5002 14.7347C19.5002 13.1364 18.1806 11.8421 16.5528 11.8421Z" stroke="#0071FE" stroke-width="1.5" stroke-linecap="round" stroke-linejoin="round"/>
        <path d="M16.6654 14.7894H16.5601M16.7707 14.7894C16.7707 14.8453 16.7485 14.8988 16.709 14.9383C16.6695 14.9778 16.616 15 16.5601 15C16.5043 15 16.4508 14.9778 16.4113 14.9383C16.3718 14.8988 16.3496 14.8453 16.3496 14.7894C16.3496 14.7336 16.3718 14.6801 16.4113 14.6406C16.4508 14.6011 16.5043 14.5789 16.5601 14.5789C16.616 14.5789 16.6695 14.6011 16.709 14.6406C16.7485 14.6801 16.7707 14.7336 16.7707 14.7894Z" stroke="#0071FE" stroke-width="1.5" stroke-linecap="round" stroke-linejoin="round"/>
    </symbol>

    <symbol id="profile-advertisements"  viewBox="0 0 24 24" fill="none">
        <rect y="24" width="24" height="24" rx="12" transform="rotate(-90 0 24)" fill="#F3F5F8"/>
        <path d="M17.6 11.25C17.6 10.9186 17.3314 10.65 17 10.65C16.6686 10.65 16.4 10.9186 16.4 11.25H17H17.6ZM12.75 7.6C13.0814 7.6 13.35 7.33137 13.35 7C13.35 6.66863 13.0814 6.4 12.75 6.4V7V7.6ZM9.5 12.4C9.16863 12.4 8.9 12.6686 8.9 13C8.9 13.3314 9.16863 13.6 9.5 13.6V13V12.4ZM14 13.6C14.3314 13.6 14.6 13.3314 14.6 13C14.6 12.6686 14.3314 12.4 14 12.4V13V13.6ZM9.5 14.15C9.16863 14.15 8.9 14.4186 8.9 14.75C8.9 15.0814 9.16863 15.35 9.5 15.35V14.75V14.15ZM12.5 15.35C12.8314 15.35 13.1 15.0814 13.1 14.75C13.1 14.4186 12.8314 14.15 12.5 14.15V14.75V15.35ZM12 17V16.4C10.8045 16.4 9.96828 16.3987 9.33677 16.3138C8.72252 16.2312 8.39255 16.0796 8.1565 15.8435L7.73223 16.2678L7.30797 16.692C7.80415 17.1882 8.42955 17.4026 9.17687 17.5031C9.90693 17.6013 10.8385 17.6 12 17.6V17ZM7 12H6.4C6.4 13.1615 6.39873 14.0931 6.49688 14.8231C6.59735 15.5704 6.81179 16.1959 7.30797 16.692L7.73223 16.2678L8.1565 15.8435C7.92044 15.6074 7.76876 15.2775 7.68618 14.6632C7.60127 14.0317 7.6 13.1955 7.6 12H7ZM17 12H16.4C16.4 13.1955 16.3987 14.0317 16.3138 14.6632C16.2312 15.2775 16.0796 15.6074 15.8435 15.8435L16.2678 16.2678L16.692 16.692C17.1882 16.1959 17.4026 15.5704 17.5031 14.8231C17.6013 14.0931 17.6 13.1615 17.6 12H17ZM12 17V17.6C13.1615 17.6 14.0931 17.6013 14.8231 17.5031C15.5704 17.4026 16.1959 17.1882 16.692 16.692L16.2678 16.2678L15.8435 15.8435C15.6074 16.0796 15.2775 16.2312 14.6632 16.3138C14.0317 16.3987 13.1955 16.4 12 16.4V17ZM12 7V6.4C10.8385 6.4 9.90693 6.39873 9.17687 6.49688C8.42955 6.59735 7.80415 6.81179 7.30797 7.30797L7.73223 7.73223L8.1565 8.1565C8.39255 7.92044 8.72252 7.76876 9.33677 7.68618C9.96828 7.60127 10.8045 7.6 12 7.6V7ZM7 12H7.6C7.6 10.8045 7.60127 9.96828 7.68618 9.33677C7.76876 8.72252 7.92044 8.39255 8.1565 8.1565L7.73223 7.73223L7.30797 7.30797C6.81179 7.80415 6.59735 8.42955 6.49688 9.17687C6.39873 9.90693 6.4 10.8385 6.4 12H7ZM17 12H17.6V11.25H17H16.4V12H17ZM12 7V7.6H12.75V7V6.4H12V7ZM17 8.5H16.4C16.4 8.99706 15.9971 9.4 15.5 9.4V10V10.6C16.6598 10.6 17.6 9.6598 17.6 8.5H17ZM15.5 10V9.4C15.0029 9.4 14.6 8.99706 14.6 8.5H14H13.4C13.4 9.6598 14.3402 10.6 15.5 10.6V10ZM14 8.5H14.6C14.6 8.00294 15.0029 7.6 15.5 7.6V7V6.4C14.3402 6.4 13.4 7.3402 13.4 8.5H14ZM15.5 7V7.6C15.9971 7.6 16.4 8.00294 16.4 8.5H17H17.6C17.6 7.3402 16.6598 6.4 15.5 6.4V7ZM9.5 13V13.6H14V13V12.4H9.5V13ZM9.5 14.75V15.35H12.5V14.75V14.15H9.5V14.75Z" fill="#6B737E"/>
    </symbol>

    <symbol id="profile-wallet"  viewBox="0 0 24 24" fill="none">
        <rect y="24" width="24" height="24" rx="12" transform="rotate(-90 0 24)" fill="#F3F5F8"/>
        <path d="M14.8125 15.1241L16.414 15.0247C16.7434 15.0043 17 14.733 17 14.4053V8.24133C17 7.52533 16.3916 6.95781 15.672 7.00247L8.17202 7.46795C7.51323 7.50883 7 8.05134 7 8.70681V11.5748M13.8456 9.12163C14.4118 9.25238 14.8125 9.75342 14.8125 10.3306V16.379C14.8125 16.7786 14.4378 17.0741 14.0459 16.9836L7.96685 15.5797C7.40069 15.4489 7 14.9478 7 14.3706V9.10376C7 8.30465 7.74933 7.71373 8.53315 7.89475L13.8456 9.12163Z" stroke="#6B737E" stroke-width="1.2" stroke-linecap="round"/>
    </symbol>

    <symbol id="profile-message"  viewBox="0 0 24 24" fill="none">
        <rect y="24" width="24" height="24" rx="12" transform="rotate(-90 0 24)" fill="#F3F5F8"/>
        <path d="M12 17C14.7614 17 17 14.7614 17 12C17 9.23858 14.7614 7 12 7C9.23858 7 7 9.23858 7 12C7 12.7998 7.18781 13.5558 7.52173 14.2262C7.61047 14.4044 7.64 14.608 7.58856 14.8003L7.29076 15.9133C7.16148 16.3965 7.60351 16.8385 8.08667 16.7092L9.19969 16.4114C9.39197 16.36 9.5956 16.3895 9.77376 16.4783C10.4442 16.8122 11.2002 17 12 17Z" stroke="#6B737E" stroke-width="1.2"/>
    </symbol>

    <symbol id="profile-store"  viewBox="0 0 24 24" fill="none">
        <rect y="24" width="24" height="24" rx="12" transform="rotate(-90 0 24)" fill="#F3F5F8"/>
        <mask id="path-2-inside-1_277_11193" fill="white">
            <path d="M6.52276 11.4864C6.91254 9.3406 7.10743 8.2677 7.84734 7.63385C8.58724 7 9.64477 7 11.7598 7H12.2402C14.3552 7 15.4128 7 16.1527 7.63385C16.8926 8.2677 17.0875 9.3406 17.4772 11.4864C18.0253 14.5038 18.2994 16.0125 17.5004 17.0062C16.7014 18 15.2143 18 12.2402 18H11.7598C8.78568 18 7.2986 18 6.49961 17.0063C5.70061 16.0125 5.97466 14.5038 6.52276 11.4864Z"/>
        </mask>
        <path d="M10.6832 9.55563C10.5759 9.24213 10.2347 9.07501 9.92123 9.18236C9.60773 9.2897 9.44061 9.63087 9.54796 9.94437L10.1156 9.75L10.6832 9.55563ZM14.4521 9.94437C14.5595 9.63087 14.3923 9.2897 14.0788 9.18236C13.7653 9.07501 13.4242 9.24213 13.3168 9.55563L13.8845 9.75L14.4521 9.94437ZM10.1156 9.75L9.54796 9.94437C9.89944 10.9708 10.8558 11.725 12 11.725V11.125V10.525C11.4042 10.525 10.8804 10.1313 10.6832 9.55563L10.1156 9.75ZM12 11.125V11.725C13.1442 11.725 14.1006 10.9708 14.4521 9.94437L13.8845 9.75L13.3168 9.55563C13.1197 10.1313 12.5958 10.525 12 10.525V11.125ZM6.49961 17.0063L5.5644 17.7582H5.5644L6.49961 17.0063ZM6.52276 11.4864L7.70344 11.7009L6.52276 11.4864ZM17.4772 11.4864L16.2966 11.7009L17.4772 11.4864ZM7.84734 7.63385L7.06664 6.72253L7.06664 6.72253L7.84734 7.63385ZM11.7598 7V8.2H12.2402V7V5.8H11.7598V7ZM12.2402 18V16.8H11.7598V18V19.2H12.2402V18ZM11.7598 18V16.8C10.2346 16.8 9.22441 16.7969 8.48889 16.6886C7.79143 16.5859 7.56602 16.4175 7.43481 16.2543L6.49961 17.0063L5.5644 17.7582C6.23219 18.5887 7.14981 18.9173 8.13918 19.063C9.09049 19.2031 10.3109 19.2 11.7598 19.2V18ZM6.52276 11.4864L5.34208 11.2719C5.07442 12.7454 4.84857 13.9736 4.80709 14.9545C4.76438 15.9646 4.90284 16.9354 5.5644 17.7582L6.49961 17.0063L7.43481 16.2543C7.29737 16.0834 7.17336 15.803 7.20495 15.0559C7.23777 14.2797 7.42299 13.2448 7.70344 11.7009L6.52276 11.4864ZM6.49961 17.0063M17.4772 11.4864L16.2966 11.7009C16.577 13.2448 16.7622 14.2797 16.7951 15.0559C16.8266 15.8029 16.7026 16.0834 16.5652 16.2543L17.5004 17.0062L18.4356 17.7582C19.0972 16.9354 19.2356 15.9646 19.1929 14.9545C19.1514 13.9736 18.9256 12.7454 18.6579 11.2719L17.4772 11.4864ZM12.2402 18V19.2C13.6891 19.2 14.9095 19.2031 15.8608 19.063C16.8502 18.9173 17.7678 18.5887 18.4356 17.7582L17.5004 17.0062L16.5652 16.2543C16.434 16.4175 16.2086 16.5859 15.5111 16.6886C14.7756 16.7969 13.7654 16.8 12.2402 16.8V18ZM17.5004 17.0062M12.2402 7V8.2C13.3291 8.2 14.0324 8.20227 14.5603 8.26959C15.0522 8.33232 15.2451 8.43648 15.372 8.54517L16.1527 7.63385L16.9334 6.72253C16.3203 6.19737 15.6145 5.9846 14.8639 5.88887C14.1492 5.79773 13.2663 5.8 12.2402 5.8V7ZM17.4772 11.4864L18.6579 11.2719C18.4683 10.2282 18.309 9.3399 18.0929 8.63941C17.868 7.91017 17.5424 7.24425 16.9334 6.72253L16.1527 7.63385L15.372 8.54517C15.5028 8.6573 15.6447 8.84476 15.7996 9.34689C15.9633 9.87776 16.0964 10.5988 16.2966 11.7009L17.4772 11.4864ZM16.1527 7.63385M11.7598 7V5.8C10.7337 5.8 9.85076 5.79773 9.13609 5.88887C8.38546 5.9846 7.67967 6.19737 7.06664 6.72253L7.84734 7.63385L8.62803 8.54517C8.75491 8.43648 8.94784 8.33232 9.43971 8.26959C9.96755 8.20227 10.6709 8.2 11.7598 8.2V7ZM6.52276 11.4864L7.70344 11.7009C7.90363 10.5988 8.03666 9.87776 8.20043 9.34689C8.35533 8.84476 8.49715 8.6573 8.62803 8.54517L7.84734 7.63385L7.06664 6.72253C6.45762 7.24425 6.13204 7.91017 5.90707 8.63941C5.69098 9.3399 5.53167 10.2282 5.34208 11.2719L6.52276 11.4864ZM7.84734 7.63385" fill="#6B737E" mask="url(#path-2-inside-1_277_11193)"/>
    </symbol>

    <symbol id="profile-selected"  viewBox="0 0 24 24" fill="none">
        <rect y="24" width="24" height="24" rx="12" transform="rotate(-90 0 24)" fill="#FE5823"/>
        <path d="M14.7295 8C13.585 8 12.8659 8.56688 12.4549 9.06501C12.2613 9.29963 11.7388 9.29959 11.5452 9.06495C11.1343 8.56684 10.4152 8 9.27047 8C7.22952 8 6 9.93641 6 11.5322C6 13.6223 9.66435 16.5686 11.2658 17.7564C11.7035 18.0811 12.2965 18.0812 12.7343 17.7565C14.3357 16.569 18 13.6234 18 11.5327C18 9.93641 16.7714 8 14.7295 8Z" fill="white"/>
    </symbol>

    <symbol id="profile-order"  viewBox="0 0 24 24" fill="none">
        <rect y="24" width="24" height="24" rx="12" transform="rotate(-90 0 24)" fill="#F3F5F8"/>
        <path d="M17 11.2105V9.10526L16.6842 8.68421C16.0642 7.85789 15.7542 7.44474 15.31 7.22211C14.8653 7 14.3489 7 13.3158 7H10.6842C9.65105 7 9.13474 7 8.69 7.22211C8.24579 7.44474 7.93579 7.85789 7.31579 8.68421L7 9.10526V12.7895C7 14.7742 7.00053 15.7663 7.61684 16.3832C8.23316 17 9.22579 17 11.2105 17H12.7895M7 9.10526H17" stroke="#6B737E" stroke-width="1.2" stroke-linecap="round" stroke-linejoin="round"/>
        <path d="M15.1575 12.5263C14.1402 12.5263 13.3154 13.3358 13.3154 14.3337C13.3154 14.9047 13.546 15.3484 14.0065 15.7447C14.3307 16.0242 14.9212 16.6237 15.1575 17C15.4054 16.6316 15.9839 16.0242 16.3091 15.7447C16.7696 15.3484 16.9996 14.9047 16.9996 14.3342C16.9996 13.3353 16.1749 12.5263 15.1575 12.5263Z" stroke="#6B737E" stroke-width="1.2" stroke-linecap="round" stroke-linejoin="round"/>
        <path d="M15.2286 14.3684H15.1628M15.2944 14.3684C15.2944 14.4033 15.2805 14.4368 15.2559 14.4614C15.2312 14.4861 15.1977 14.5 15.1628 14.5C15.1279 14.5 15.0945 14.4861 15.0698 14.4614C15.0451 14.4368 15.0312 14.4033 15.0312 14.3684C15.0312 14.3335 15.0451 14.3 15.0698 14.2754C15.0945 14.2507 15.1279 14.2368 15.1628 14.2368C15.1977 14.2368 15.2312 14.2507 15.2559 14.2754C15.2805 14.3 15.2944 14.3335 15.2944 14.3684Z" stroke="#6B737E" stroke-width="1.2" stroke-linecap="round" stroke-linejoin="round"/>
    </symbol>

    <symbol id="profile-settings"  viewBox="0 0 24 24" fill="none">
        <rect y="24" width="24" height="24" rx="12" transform="rotate(-90 0 24)" fill="#F3F5F8"/>
        <path d="M13 8.4706L7.3 8.47059M13 8.4706C13 9.28278 13.6716 9.94118 14.5 9.94118C15.3284 9.94118 16 9.28277 16 8.47059C16 7.65841 15.3284 7 14.5 7C13.6716 7 13 7.65841 13 8.4706ZM15.7 12H10M10 12C10 12.8122 9.32843 13.4706 8.5 13.4706C7.67157 13.4706 7 12.8122 7 12C7 11.1878 7.67157 10.5294 8.5 10.5294C9.32843 10.5294 10 11.1878 10 12ZM13 15.5294H7.3M13 15.5294C13 16.3416 13.6716 17 14.5 17C15.3284 17 16 16.3416 16 15.5294C16 14.7172 15.3284 14.0588 14.5 14.0588C13.6716 14.0588 13 14.7172 13 15.5294Z" stroke="#6B737E" stroke-width="1.2" stroke-linecap="round"/>
    </symbol>

    <symbol id="profile-help"  viewBox="0 0 24 24" fill="none">
        <rect y="24" width="24" height="24" rx="12" transform="rotate(-90 0 24)" fill="#F3F5F8"/>
        <path d="M7 12C7 9.64298 7 8.46447 7.73223 7.73223C8.46447 7 9.64298 7 12 7C14.357 7 15.5355 7 16.2678 7.73223C17 8.46447 17 9.64298 17 12C17 14.357 17 15.5355 16.2678 16.2678C15.5355 17 14.357 17 12 17C9.64298 17 8.46447 17 7.73223 16.2678C7 15.5355 7 14.357 7 12Z" stroke="#6B737E" stroke-width="1.2"/>
        <path d="M11.0625 10.4375C11.0625 9.91973 11.4822 9.5 12 9.5C12.5178 9.5 12.9375 9.91973 12.9375 10.4375C12.9375 10.7812 12.7525 11.0817 12.4767 11.2449C12.239 11.3855 12 11.5989 12 11.875V12.5" stroke="#6B737E" stroke-width="1.2" stroke-linecap="round"/>
        <ellipse cx="12" cy="14" rx="0.5" ry="0.5" fill="#6B737E"/>
    </symbol>

    <symbol id="bars"  viewBox="0 0 16 16" fill="none">
        <path d="M5.66667 9.16667V15M10.3333 5.66667V15M15 1V15M1 10.3333V15" stroke="#0071FE" stroke-width="2" stroke-linecap="round"/>
    </symbol>

    <symbol id="modal-close" viewBox="0 0 12 12" fill="none">
            <path d="M2 10L6 6M6 6L10 2M6 6L10 10M6 6L2 2" stroke="#6B737E" stroke-width="1.5" stroke-linecap="round"/>
    </symbol>

    <symbol  id="arrow-bottom"  viewBox="0 0 24 24" fill="none" >
        <path d="M17 10L12 15L7 10" stroke="#101F2F" stroke-width="1.5" stroke-linecap="round"/>
    </symbol>


    <symbol id="select-icon"  viewBox="0 0 30 6" fill="none">
        <circle cx="7" cy="3" r="3" fill="var(--select-color,#E0E4E9)"/>
        <circle cx="17" cy="3" r="3" fill="var(--select-color,#E0E4E9)"/>
        <circle cx="27" cy="3" r="3" fill="var(--select-color,#E0E4E9)"/>
    </symbol>

    <symbol id="dropdown-pen" viewBox="0 0 14 14" fill="none">
            <path d="M1.09293 12.6H12.4838M11.612 0.99776L12.1981 1.57427C12.7374 2.10465 12.7374 2.96456 12.1981 3.49494L4.44121 11.1247C4.28963 11.2738 4.10486 11.3862 3.90151 11.4528L1.05748 12.3853C0.787629 12.4737 0.5309 12.2212 0.620849 11.9558L1.56886 9.15837C1.63664 8.95839 1.75085 8.7766 1.90242 8.62755L9.65932 0.997754C10.1986 0.467382 11.0728 0.467382 11.612 0.99776Z" stroke="#6B737E" stroke-width="1.2" stroke-linecap="round"/>
    </symbol>
    <symbol id="dropdown-compare"  viewBox="0 0 14 12" fill="none" >
        <path d="M12.5996 2.6C12.931 2.6 13.1996 2.33137 13.1996 2C13.1996 1.66863 12.931 1.4 12.5996 1.4V2V2.6ZM0.599609 1.4C0.268239 1.4 -0.000390649 1.66863 -0.000390649 2C-0.000390649 2.33137 0.268239 2.6 0.599609 2.6V2V1.4ZM6.24667 6.23636C6.57804 6.23636 6.84667 5.96773 6.84667 5.63636C6.84667 5.30499 6.57804 5.03636 6.24667 5.03636V5.63636V6.23636ZM0.599609 5.03636C0.268239 5.03636 -0.000390649 5.30499 -0.000390649 5.63636C-0.000390649 5.96773 0.268239 6.23636 0.599609 6.23636V5.63636V5.03636ZM6.95255 9.87273C7.28392 9.87273 7.55255 9.6041 7.55255 9.27273C7.55255 8.94136 7.28392 8.67273 6.95255 8.67273V9.27273V9.87273ZM0.599609 8.67273C0.268239 8.67273 -0.000390649 8.94136 -0.000390649 9.27273C-0.000390649 9.6041 0.268239 9.87273 0.599609 9.87273V9.27273V8.67273ZM8.63965 5.58211C8.40886 5.8199 8.41453 6.19976 8.65231 6.43055C8.8901 6.66134 9.26995 6.65567 9.50075 6.41789L9.0702 6L8.63965 5.58211ZM10.8349 4.18182L11.2655 3.76393C11.1525 3.64752 10.9971 3.58182 10.8349 3.58182C10.6727 3.58182 10.5173 3.64752 10.4044 3.76393L10.8349 4.18182ZM12.1691 6.41789C12.3999 6.65567 12.7797 6.66134 13.0175 6.43055C13.2553 6.19976 13.261 5.8199 13.0302 5.58211L12.5996 6L12.1691 6.41789ZM10.2349 10C10.2349 10.3314 10.5035 10.6 10.8349 10.6C11.1663 10.6 11.4349 10.3314 11.4349 10H10.8349H10.2349ZM12.5996 2V1.4H0.599609V2V2.6H12.5996V2ZM6.24667 5.63636V5.03636H0.599609V5.63636V6.23636H6.24667V5.63636ZM6.95255 9.27273V8.67273H0.599609V9.27273V9.87273H6.95255V9.27273ZM9.0702 6L9.50075 6.41789L11.2655 4.5997L10.8349 4.18182L10.4044 3.76393L8.63965 5.58211L9.0702 6ZM10.8349 4.18182L10.4044 4.5997L12.1691 6.41789L12.5996 6L13.0302 5.58211L11.2655 3.76393L10.8349 4.18182ZM10.8349 4.18182H10.2349V10H10.8349H11.4349V4.18182H10.8349Z" fill="#6B737E"/>
    </symbol>

    <symbol id="dropdown-autopublish"  viewBox="0 0 14 13" fill="none">
        <path d="M11.5699 8.44118C10.7615 10.5208 8.69188 12 6.26628 12C3.13666 12 0.599609 9.53755 0.599609 6.5C0.599609 3.46243 3.13666 1 6.26628 1C8.20181 1 9.91068 1.94185 10.9329 3.37911M8.82834 5.52941H12.5996V1.8691" stroke="#6B737E" stroke-width="1.2" stroke-linecap="round"/>
    </symbol>

    <symbol id="dropdown-trash" viewBox="0 0 12 12" fill="none">
            <path d="M10 3.26667C10.3314 3.26667 10.6 2.99804 10.6 2.66667C10.6 2.3353 10.3314 2.06667 10 2.06667V2.66667V3.26667ZM1 2.06667C0.668629 2.06667 0.4 2.3353 0.4 2.66667C0.4 2.99804 0.668629 3.26667 1 3.26667V2.66667V2.06667ZM8.87402 7.8884L8.27523 7.85036V7.85036L8.87402 7.8884ZM9.71631 4.0936C9.73732 3.76289 9.48627 3.47777 9.15556 3.45676C8.82486 3.43575 8.53974 3.68681 8.51873 4.01752L9.11752 4.05556L9.71631 4.0936ZM2.48106 4.01751C2.46005 3.68681 2.17493 3.43575 1.84422 3.45676C1.51352 3.47777 1.26246 3.76289 1.28347 4.0936L1.88226 4.05556L2.48106 4.01751ZM2.12576 7.8884L1.52697 7.92644L2.12576 7.8884ZM2.72426 10.5504L3.1446 10.1223V10.1223L2.72426 10.5504ZM4.77375 5.38753C4.74231 5.05765 4.44941 4.81572 4.11954 4.84715C3.78966 4.87859 3.54773 5.17149 3.57916 5.50136L4.17646 5.44444L4.77375 5.38753ZM3.84387 8.27914C3.8753 8.60902 4.1682 8.85095 4.49808 8.81952C4.82795 8.78808 5.06989 8.49518 5.03845 8.1653L4.44116 8.22222L3.84387 8.27914ZM7.42079 5.50136C7.45223 5.17149 7.2103 4.87859 6.88042 4.84715C6.55054 4.81572 6.25764 5.05765 6.22621 5.38753L6.8235 5.44444L7.42079 5.50136ZM5.9615 8.1653C5.93007 8.49518 6.172 8.78808 6.50188 8.81952C6.83175 8.85095 7.12466 8.60902 7.15609 8.27914L6.5588 8.22222L5.9615 8.1653ZM7.3151 1.71429L7.88694 1.53264L7.88694 1.53264L7.3151 1.71429ZM7.36649 1.8761L6.79465 2.05774L6.79465 2.05774L7.36649 1.8761ZM3.63346 1.8761L3.06162 1.69445L3.06162 1.69445L3.63346 1.8761ZM3.68486 1.71429L3.11302 1.53264V1.53264L3.68486 1.71429ZM3.61487 1.93351L4.18211 2.12904L4.18211 2.12904L3.61487 1.93351ZM2.64601 2.66631L2.66196 3.2661H2.66196L2.64601 2.66631ZM7.38509 1.93351L7.95233 1.73798L7.95233 1.73796L7.38509 1.93351ZM8.35394 2.66631L8.33799 3.2661H8.338L8.35394 2.66631ZM6.64106 1.01043L6.74022 0.418676V0.418676L6.64106 1.01043ZM7.22018 1.44844L7.75765 1.18174L7.75764 1.18174L7.22018 1.44844ZM4.35889 1.01043L4.25973 0.418676V0.418676L4.35889 1.01043ZM3.77978 1.44844L3.24231 1.18174L3.24231 1.18174L3.77978 1.44844ZM10 2.66667V2.06667H1V2.66667V3.26667H10V2.66667ZM5.29518 11V11.6H5.7046V11V10.4H5.29518V11ZM8.87402 7.8884L9.47282 7.92644L9.71631 4.0936L9.11752 4.05556L8.51873 4.01752L8.27523 7.85036L8.87402 7.8884ZM1.88226 4.05556L1.28347 4.0936L1.52697 7.92644L2.12576 7.8884L2.72455 7.85036L2.48106 4.01751L1.88226 4.05556ZM5.7046 11V11.6C6.39179 11.6 6.96853 11.6013 7.42818 11.5382C7.90773 11.4724 8.34047 11.3275 8.69587 10.9786L8.27553 10.5504L7.85519 10.1223C7.75264 10.2229 7.60425 10.3028 7.26499 10.3494C6.90582 10.3987 6.42607 10.4 5.7046 10.4V11ZM8.87402 7.8884L8.27523 7.85036C8.22739 8.60344 8.19395 9.11242 8.12189 9.49201C8.05254 9.85733 7.96131 10.0181 7.85519 10.1223L8.27553 10.5504L8.69587 10.9786C9.04769 10.6332 9.20885 10.2004 9.30084 9.71582C9.39011 9.24554 9.42696 8.6483 9.47282 7.92644L8.87402 7.8884ZM5.29518 11V10.4C4.57371 10.4 4.09397 10.3987 3.7348 10.3494C3.39553 10.3028 3.24714 10.2229 3.1446 10.1223L2.72426 10.5504L2.30392 10.9786C2.65931 11.3275 3.09206 11.4724 3.57161 11.5382C4.03125 11.6013 4.60799 11.6 5.29518 11.6V11ZM2.12576 7.8884L1.52697 7.92644C1.57283 8.6483 1.60967 9.24554 1.69894 9.71582C1.79093 10.2004 1.9521 10.6332 2.30392 10.9786L2.72426 10.5504L3.1446 10.1223C3.03847 10.0181 2.94724 9.85733 2.87789 9.49201C2.80583 9.11242 2.77239 8.60344 2.72455 7.85036L2.12576 7.8884ZM4.17646 5.44444L3.57916 5.50136L3.84387 8.27914L4.44116 8.22222L5.03845 8.1653L4.77375 5.38753L4.17646 5.44444ZM6.8235 5.44444L6.22621 5.38753L5.9615 8.1653L6.5588 8.22222L7.15609 8.27914L7.42079 5.50136L6.8235 5.44444ZM4.62924 1V1.6H6.37072V1V0.4H4.62924V1ZM7.3151 1.71429L6.74325 1.89593L6.79465 2.05774L7.36649 1.8761L7.93834 1.69445L7.88694 1.53264L7.3151 1.71429ZM3.63346 1.8761L4.20531 2.05774L4.2567 1.89593L3.68486 1.71429L3.11302 1.53264L3.06162 1.69445L3.63346 1.8761ZM3.63346 1.8761L3.06162 1.69445C3.05129 1.72697 3.04922 1.73333 3.04762 1.73798L3.61487 1.93351L4.18211 2.12904C4.18964 2.10721 4.19692 2.08413 4.20531 2.05774L3.63346 1.8761ZM2.58823 2.66667V3.26667C2.61431 3.26667 2.63865 3.26672 2.66196 3.2661L2.64601 2.66631L2.63006 2.06652C2.62656 2.06662 2.62131 2.06667 2.58823 2.06667V2.66667ZM3.61487 1.93351L3.04762 1.73798C2.97605 1.94561 2.80165 2.06196 2.63006 2.06652L2.64601 2.66631L2.66196 3.2661C3.36226 3.24747 3.95701 2.78207 4.18211 2.12904L3.61487 1.93351ZM7.36649 1.8761L6.79465 2.05774C6.80297 2.08393 6.81033 2.10725 6.81785 2.12906L7.38509 1.93351L7.95233 1.73796C7.95075 1.73337 7.94862 1.72682 7.93834 1.69445L7.36649 1.8761ZM8.41173 2.66667V2.06667C8.37864 2.06667 8.3734 2.06662 8.36989 2.06652L8.35394 2.66631L8.338 3.2661C8.36131 3.26672 8.38565 3.26667 8.41173 3.26667V2.66667ZM7.38509 1.93351L6.81784 2.12904C7.04295 2.78207 7.6377 3.24747 8.33799 3.2661L8.35394 2.66631L8.36989 2.06652C8.19831 2.06196 8.02391 1.94561 7.95233 1.73798L7.38509 1.93351ZM6.37072 1V1.6C6.44366 1.6 6.48504 1.60006 6.51619 1.60102C6.54435 1.60189 6.54768 1.60314 6.5419 1.60218L6.64106 1.01043L6.74022 0.418676C6.61685 0.398003 6.48749 0.4 6.37072 0.4V1ZM7.3151 1.71429L7.88694 1.53264C7.84925 1.41398 7.81216 1.29161 7.75765 1.18174L7.22018 1.44844L6.68271 1.71515C6.68188 1.71346 6.68528 1.71968 6.69559 1.74922C6.70677 1.78128 6.72032 1.82374 6.74325 1.89593L7.3151 1.71429ZM6.64106 1.01043L6.5419 1.60218C6.59205 1.61058 6.64834 1.64587 6.68271 1.71515L7.22018 1.44844L7.75764 1.18174C7.55983 0.783098 7.18651 0.493462 6.74022 0.418676L6.64106 1.01043ZM4.62924 1V0.4C4.51246 0.4 4.38311 0.398003 4.25973 0.418676L4.35889 1.01043L4.45805 1.60218C4.45228 1.60314 4.45561 1.60189 4.48377 1.60102C4.51492 1.60006 4.5563 1.6 4.62924 1.6V1ZM3.68486 1.71429L4.2567 1.89593C4.27963 1.82375 4.29318 1.78128 4.30437 1.74922C4.31467 1.71968 4.31808 1.71346 4.31724 1.71515L3.77978 1.44844L3.24231 1.18174C3.18779 1.29161 3.15071 1.41399 3.11302 1.53264L3.68486 1.71429ZM4.35889 1.01043L4.25973 0.418676C3.81344 0.493462 3.44013 0.783098 3.24231 1.18174L3.77978 1.44844L4.31724 1.71515C4.35162 1.64587 4.4079 1.61058 4.45805 1.60218L4.35889 1.01043Z" fill="#6B737E"/>a
    </symbol>
    <symbol id="dropdown-profile"  viewBox="0 0 12 14" fill="none">
        <path d="M8.5 2.99998C8.5 4.32546 7.38071 5.39998 6 5.39998C4.61929 5.39998 3.5 4.32546 3.5 2.99998C3.5 1.67449 4.61929 0.599976 6 0.599976C7.38071 0.599976 8.5 1.67449 8.5 2.99998Z" stroke="#6B737E" stroke-width="1.2"/>
        <path d="M11 9.89998C11 11.3911 11 12.6 6 12.6C1 12.6 1 11.3911 1 9.89998C1 8.40881 3.23858 7.19998 6 7.19998C8.76142 7.19998 11 8.40881 11 9.89998Z" stroke="#6B737E" stroke-width="1.2"/>
    </symbol>
    <symbol id="dropdown-cancel"  viewBox="0 0 12 12" fill="none">
        <path d="M2 10L6 6M6 6L10 2M6 6L10 10M6 6L2 2" stroke="#6B737E" stroke-width="1.2" stroke-linecap="round"/>
    </symbol>




    <symbol id="menu-back" viewBox="0 0 38 38" fill="none" >
        <rect x="1.66103e-06" y="38" width="38" height="38" rx="10" transform="rotate(-90 1.66103e-06 38)" fill="white"/>
        <path d="M25 19L13 19M17 23L13 19L17 15" stroke="#3B5C84" stroke-width="1.5" stroke-linecap="round"/>
    </symbol>

    <symbol id="support"  viewBox="0 0 55 55" fill="none" >
        <circle cx="27.5" cy="27.5" r="27.5" fill="#0071FE"/>
        <path fill-rule="evenodd" clip-rule="evenodd" d="M19.3775 21.0824C19 21.6203 19 23.2191 19 26.4167V27.9914C19 33.6294 23.239 36.3655 25.8986 37.5273C26.62 37.8424 26.9807 38 28 38C29.0193 38 29.38 37.8424 30.1014 37.5273C32.761 36.3655 37 33.6294 37 27.9914V26.4167C37 23.2191 37 21.6203 36.6225 21.0824C36.245 20.5445 34.7417 20.03 31.7351 19.0008L31.1623 18.8047C29.595 18.2682 28.8114 18 28 18C27.1886 18 26.405 18.2682 24.8377 18.8047L24.2649 19.0008C21.2583 20.03 19.755 20.5445 19.3775 21.0824ZM26.8613 24.3634L26.7302 24.5985C26.5862 24.8568 26.5142 24.9859 26.402 25.0711C26.2897 25.1563 26.1499 25.188 25.8704 25.2512L25.6158 25.3088C24.6319 25.5314 24.14 25.6427 24.023 26.0191C23.9059 26.3955 24.2413 26.7876 24.912 27.572L25.0856 27.7749C25.2762 27.9978 25.3715 28.1092 25.4143 28.2471C25.4572 28.385 25.4428 28.5336 25.414 28.831L25.3878 29.1018C25.2864 30.1482 25.2356 30.6715 25.5421 30.9041C25.8485 31.1367 26.3091 30.9246 27.2303 30.5005L27.4686 30.3907C27.7304 30.2702 27.8613 30.2099 28 30.2099C28.1387 30.2099 28.2696 30.2702 28.5314 30.3907L28.7697 30.5005C29.6909 30.9246 30.1515 31.1367 30.4579 30.9041C30.7644 30.6715 30.7136 30.1482 30.6122 29.1018L30.586 28.831C30.5572 28.5337 30.5428 28.385 30.5857 28.2471C30.6285 28.1092 30.7238 27.9978 30.9144 27.7749L31.088 27.572C31.7587 26.7876 32.0941 26.3955 31.977 26.0191C31.86 25.6427 31.3681 25.5314 30.3842 25.3088L30.1296 25.2512C29.8501 25.188 29.7103 25.1563 29.598 25.0711C29.4858 24.9859 29.4138 24.8568 29.2698 24.5985L29.1387 24.3633C28.6321 23.4545 28.3787 23 28 23C27.6213 23 27.3679 23.4545 26.8613 24.3634Z" fill="white"/>
    </symbol>

    <symbol id="message-file"  viewBox="0 0 24 24" fill="none">
        <path d="M14.0008 8.11765L8.05972 14.0587C7.26372 14.8547 7.26372 16.1453 8.05972 16.9413C8.85574 17.7373 10.1464 17.7373 10.9424 16.9413L18.3088 9.57484C19.7957 8.08801 19.7955 5.67732 18.3083 4.19077C16.8216 2.70461 14.4117 2.70483 12.9252 4.19127L5.55873 11.5577C3.38147 13.735 3.38147 17.265 5.55873 19.4423C7.736 21.6196 11.2661 21.6196 13.4434 19.4423L18.8856 14" stroke="#CAD1DC" stroke-width="1.5" stroke-linecap="round"/>
    </symbol>

    <symbol id="message-send"  viewBox="0 0 28 28" fill="none">
        <path d="M12.5503 21.3045L17.0733 19.0379C21.0244 17.0578 23 16.0678 23 14.5C23 12.9322 21.0244 11.9422 17.0733 9.96209L12.5503 7.69549C9.36136 6.09739 7.76688 5.29833 6.8425 5.54361C5.96312 5.77694 5.27632 6.46531 5.04351 7.34668C4.79879 8.27316 5.59603 9.87126 7.19052 13.0675C7.44654 13.5807 7.57455 13.8373 7.6276 14.1058C7.67901 14.3661 7.67902 14.6339 7.6276 14.8942C7.57455 15.1627 7.44653 15.4193 7.19052 15.9325C5.59604 19.1287 4.79879 20.7268 5.04351 21.6533C5.27632 22.5347 5.96312 23.2231 6.8425 23.4564C7.76688 23.7017 9.36137 22.9026 12.5503 21.3045Z" fill="#E0ECFC"/>
    </symbol>

    <symbol id="message-check" viewBox="0 0 16 16" fill="none">
        <path  d="M1.33398 8.00002L4.83398 11.3334L6.58398 9.33335M5.33398 8.00002L8.83398 11.3334L14.6673 4.66669M10.6673 4.66669L8.33398 7.33335" stroke="#0071FE" stroke-width="1.2" stroke-linecap="round" stroke-linejoin="round"/>
    </symbol>


    <symbol id="messages-back" viewBox="0 0 32 32" fill="none">
        <rect x="1.39876e-06" y="32" width="32" height="32" rx="10" transform="rotate(-90 1.39876e-06 32)" fill="#F3F5F8"/>
        <path d="M22 16L10 16M14 20L10 16L14 12" stroke="#3B5C84" stroke-width="1.5" stroke-linecap="round"/>
    </symbol>

    <symbol id="messages-heart"  viewBox="0 0 12 10" fill="none" >
        <path d="M7.87417 0.599998C6.92045 0.599998 6.32116 1.05351 5.97866 1.452C5.81736 1.6397 5.38192 1.63967 5.22061 1.45196C4.87817 1.05347 4.27893 0.599998 3.325 0.599998C1.62421 0.599998 0.599609 2.14912 0.599609 3.42578C0.599609 5.0978 3.65323 7.4549 4.98775 8.40512C5.35252 8.66491 5.8467 8.66497 6.21152 8.40523C7.54604 7.45516 10.5996 5.0987 10.5996 3.42616C10.5996 2.14912 9.57577 0.599998 7.87417 0.599998Z" stroke="#0071FE" stroke-width="1.2" stroke-linecap="round"/>
    </symbol>




</svg>

